<svg xmlns="http://www.w3.org/2000/svg" width="183.701" height="256.067" viewBox="0 0 183.701 256.067">
  <path id="Path_3910" data-name="Path 3910" d="M132.072,134.806c-2.129-1.863-3.054-3.484-5.674-5.192-.616-.4-12.45-1.153-14.314-.289a8.288,8.288,0,0,0-4.542,4.217l-.761,2.972a11.213,11.213,0,0,0-.506,5.187h.38l2.745-2.837,7.292-.222.116,2.591c-1.652.357-5.24-.121-6.536.357l-3.482,3.32c-.13.536.255,3.6.149,4.975a12.8,12.8,0,0,0,0,4.048h.337l3.092-2.828,7.176-.227v2.61c-1.637.328-4.971-.14-6.29.328l-4.1,3.006-.366.709q-.3,3.764-.506,7.537c.506,1.848,2.36-.729,3.116-1.945,3.906.357,7.407.449,10.461.738h1.623l1.349-1.264c1.349-1.173,1.58-2.828,4.214-3.175,2.688,0,6.252.135,7.6-.738,1.334-.893,1.334-2.635,2.49-3.744,2.938-2.572,7-3.884,11.583-6.278,9.671-5.1,13.322-3.349,25.257-12.285l5.688-3.691,1.845,2.249c-3.583,2.591-9,6.413-9,6.413,1.825,7.166,6.647,11.494,12.682,17.931,4.079,4.864,17.767,14.847,24.284,16.7-6.03,3.117-18.6,11.639-28.739,21.149-7.489,7.2-16.732,14.708-17.739,20.305-1.349,6.934,3.217,19.007,8.048,32.74l1.074,3.117-.737,1.477-2.211.859c-3.93.734-9.845.111-12.349,1.38a24.68,24.68,0,0,0-5.871,4.56c-1.238,1.211-3.588,7.17-3.839,13.583l1.1.883,1.618-1.737a9.715,9.715,0,0,1,5.178-.608c1.589-4.106,2.355-8.787,6.059-8.657l.968.637c.12.854-3.468,2.717-3.973,8.768l.891.994c.954-.28,1.585-2.138,3.083-2.253,2.707-.372,3.434-.145,7.388-.145l.376-.323a13.543,13.543,0,0,1,1.474-6.046l2.817.449c-.973,1.863-1.845,2.128-1.845,8.546.149.381.612,1.1,1.975-.767l2.076-1.848c3.367-.333,8.149.41,9.859-.743,1-.478,3.974-4.169,5.7-6.181L193.1,263.4c.347-2.205,1.353-6.92,1.97-10.1-4.691-6.688-4.315-17.931.26-22.887,4.3-4.835,10.1-5.694,21.529-10.254A28.873,28.873,0,0,1,211.2,203.9l3.068.285A25.122,25.122,0,0,0,217,214.2a37.62,37.62,0,0,0,10.119,12.879c3.564,2.958,14.786,9.139,14.786,10.756,0,1.935,1.2,7.542,1.2,15.2-.472,2.857-6.868,3.209-11.67,4.295a25.445,25.445,0,0,0-6.059,4.743c-1.233,1.25-3.55,7.17-3.93,13.588l1.117.869,1.58-1.713a11.263,11.263,0,0,1,5.332-.656c1.575-4.068,2.331-8.787,6.035-8.623l.852.584c.274.888-3.319,2.736-3.935,8.772l.848,1.013c1.117-.246,1.618-2.114,3.087-2.215,2.856-.4,3.583-.121,7.494-.121l.39-.386c.145-3.937,1-4.676,1.349-6.07l2.827.521c-.978,1.843-1.859,2.085-1.859,8.522.294.372.65,1.124,2.028-.719l2.158-1.867c3.261-.386,6.96.347,8.674-.753a73.857,73.857,0,0,0,5.674-7.445l.255-.97c0-.849-.876-6.533-1.382-11.494-.472-6.413.506-12.869,1.122-17.178l-.121-2.471c-2.206-3.971-5.553-7.687-7.99-22.631-.9-4.328-.54-10.157,1.575-13.5l1.358-5.457c0-1.727-.125-3.334-.125-5.65l.741-.762a31.769,31.769,0,0,0,18.114-6.418c2.355-1.877,5.307-7.074,5.919-10.056,1.464-6.92,1.464-13.849-.732-24.918A172.2,172.2,0,0,1,281.6,125.4a184.65,184.65,0,0,1-.477-31.051,17.45,17.45,0,0,1,.741-4.208,11.105,11.105,0,0,0,5.76-8.039l2.119-10.669c.862-3.928-3.323-11.238-7.022-11.745l-2.861-.372c-3.564-.864-9.093,5.182-9.464,9.048L269.16,79.112a10.542,10.542,0,0,0,2.962,9.429c0,2.606-.385,3.064-.621,5.81,0,0-1.464,16.237-.992,26.607.231,5.221.5,8.131,1.113,13.352.54,4.444,1.113,6.92,1.734,11.412a51.531,51.531,0,0,1,.742,9.482c.115,8.367-2.476,14.215-11.863,15.856a21.7,21.7,0,0,1-7.644.227c-1.007-.883-1.845-4.213-4.3-5.564-12.71-7.663-17.031-10.022-19.617-20.812-4.171-17.545-2.591-26.959,6.68-50.169.472-4.459,2.192-7.817,2.326-10.64.987-11.4,4.166-14-3.564-33.565-2.009,1.892-1.845,6.562-3.473,5.723-2.827-3.595-4.677-6.466-5.529-11.388-1.118-5.675-.255-8.068-.612-9.651a23.614,23.614,0,0,0-4.219-4.106c-1.989-1.322-.462-3.45-.722-5.308-.616-4.058-4.715-5.916-8.144-5.033-2.577.584-3.3,2.832-6.31,3.942-2.581.864-16.25,3.45-16.25,3.45-2.726.227-4.566,0-6.887,1.206a9.451,9.451,0,0,0-3.978,5.221c-.222.743-3.7,2.48-6.035,2.205h-1.58c-2.119.762-3.468,1.24-5.322,1.969l-.737,1.115c0,.984.621,3.87.992,7.059l1.594,2.5.881.709a20.323,20.323,0,0,0,1.59,5.573l1.117.285c2.21-.647,7.494-3.354,13.447-.873l.717,1a11.192,11.192,0,0,1,.482,5.3l-.857,1.346-1.7.618c-5.072,0-6.444.241-11.742-.618,0,3.339-.087,7.672,1.734,8.2a30.874,30.874,0,0,0,5.683.323c0,2.746-.616,4.478.7,6.6,1.406,1,4.325-5.207,9.291-8.073l.231.5c-1.849,3.469-8.5,12.02-9.228,12.15-2.6-2.519-2.6-5.988-2.6-9.786-3.839,3.325-5.317,7.653-3.338,14.732,1.373-.511,2.586-2.741,4.07-3.46l.867.483c-2.6,2.823-2.6,7.682-4.937,7.421a17.154,17.154,0,0,1-2.721-9.047l-1,.4c-1.585,3.093-3.439,11.132-2.081,16.585l.607.347c1.354-1.94,1.753-5.3,3.323-6.688l1.012.294c-1.368,2.712-3.94,9.52-4.1,14.573l-.342.984c-3.709-5.182-4.445-15.851-1.233-23.866-5.418,1.829-7.653,0-13.211-2.818,0,0-3.709-2.755-6-4.357L130.916,64.656c0-3.865.144-7.889-2.7-10.022-1.589-1.119-15.826-.878-17.387-.618l-3.93,3.826a21.959,21.959,0,0,0-.506,7.31h.361l2.731-2.857,5.438-.241.087,2.6c-1.628.386-3.323-.154-4.682.386l-3.579,3.093a33.467,33.467,0,0,0-.506,7.281h.381l2.625-2.832,5.558-.294v2.625c-1.647.391-3.352-.111-4.566.391l-3.482,2.852a34.059,34.059,0,0,0-.506,7.3h.38l2.625-2.813,5.558-.28,5.414,4.333,8.5.589c2.085,3.74,6.155,6.07,9.864,9.665,4.942,3.744,17.373,15.721,20.821,17.207l7.051-4.594,1.705,2.094c-3.555,2.586-9.5,6.833-9.5,6.833-14.256,11.5-18.471,11.277-25.734,16.449l-.867-.135Z" transform="translate(-106.154 -20.558)" fill="#0b3058"/>
</svg>
