<svg xmlns="http://www.w3.org/2000/svg" xmlns:xlink="http://www.w3.org/1999/xlink" width="418.605" height="353.982" viewBox="0 0 418.605 353.982">
  <defs>
    <clipPath id="clip-path">
      <rect id="Rectangle_1316" data-name="Rectangle 1316" width="357.483" height="223.879" transform="translate(0 0)" fill="none"/>
    </clipPath>
  </defs>
  <g id="Group_2151" data-name="Group 2151" transform="translate(94.615 0.001) rotate(25)">
    <g id="Group_2150" data-name="Group 2150" transform="translate(0 -0.001)" clip-path="url(#clip-path)">
      <path id="Path_3878" data-name="Path 3878" d="M850.042,2340.6a3.976,3.976,0,0,1-.251-.862c.261-.271.649-.225.993-.251a8.482,8.482,0,0,1-.742,1.114m-1.029-1.355c.1-.412.827-.34.8.1-.082.4-.836.309-.8-.1m-33.181,16.926c-.39-.623.08-1.156.457-1.635a8.231,8.231,0,0,1-.457,1.635m-2.671,1.452a12.268,12.268,0,0,1-1.26-1.436,2.879,2.879,0,0,1,.7.2,1.843,1.843,0,0,0,.781.89c-.055.088-.165.259-.218.346m-15.49,7.416c-.277.274-.441.2-.5-.208.274-.277.438-.211.5.208m-5.573,1.8c-.218-.187-.6-.672-.221-.869.282-.333.72-.048,1.078-.073-.2-.171-.4-.325-.6-.484.3-.464.425-1.108.961-1.37a3.974,3.974,0,0,1,.56.55C793.17,2365.27,793.232,2366.654,792.1,2366.837Zm-2.263,2.521c-.456.362-.923-.507-.521-.8.535-.585,1.287.579.521.8m-35.269-38.646c-.11.063-.334.19-.446.251-.008.342-.014.684-.012,1.026-.139.069-.417.2-.557.269a2.505,2.505,0,0,1,.91-1.728l-.565-.482c.575-.391.561.264.67.664m.113-13.4c-.171.309-.34.324-.5.051q.255-.466.5-.051m2.183.582q.434-.381.532.214c-.3.25-.475.181-.532-.214m90.8,20.92c-.415.2-.943.324-1.042.844a.511.511,0,0,0-.666-.054q-16.122,7.4-32.247,14.808a13.361,13.361,0,0,0-2.415,1.249l-.568.024c.159.211.315.428.471.644a2.862,2.862,0,0,1-.841-.379c-.523.246-1.037.5-1.557.751-.029.243-.059.485-.094.728-.056-.161-.164-.483-.218-.641-5.267,2.527-10.662,4.79-15.877,7.417-2.785,1.047-5.423,2.45-8.15,3.639-1.749.724-3.417,1.854-5.361,1.933a6.611,6.611,0,0,1-6.208-3.645q-3-6.495-5.973-13c-.16.135-.484.411-.646.547-.215-.524.218-.568.624-.607-3.794-8.177-7.5-16.4-11.32-24.564-.105,0-.208,0-.311,0-.185.036-.56.1-.747.142a5.142,5.142,0,0,0,.717-.725c-.092-.6-.44-1.126-.563-1.721a6.6,6.6,0,0,1,3.378-7.472c3-1.416,6.029-2.787,9.05-4.167l-.271-.775c.188.211.376.425.565.638,5.634-2.616,11.3-5.16,16.924-7.8-.073-.166-.222-.5-.3-.661.349-.832,1.09-1.6.649-2.568.131-.1.391-.291.521-.389l-.438-.888c-.792.359-1.583.724-2.37,1.086-.005.152-.012.453-.018.6-.131-.083-.4-.242-.528-.322-8.286,3.743-16.531,7.587-24.8,11.362a10.761,10.761,0,0,0-4.5,3.565,10.484,10.484,0,0,0-1.321,9.864c.9,2.148,1.946,4.225,2.863,6.363l.772-.51c.033.466-.335.576-.72.633,4.716,10.129,9.332,20.305,14.01,30.452a34.843,34.843,0,0,0,2.05,4.11c.368-.2.737-.388,1.114-.563a2.1,2.1,0,0,1-.807.934,10.575,10.575,0,0,0,11.97,3.35c2.973-1.257,5.857-2.716,8.816-4.007-.046-.147-.136-.444-.181-.592a3.765,3.765,0,0,0,2.052-.268q2.357-1.083,4.717-2.169c.111-.286.227-.575.351-.856.119.118.36.352.482.469,5.412-2.481,10.826-4.954,16.227-7.462a18.056,18.056,0,0,0,2.616-1.288c1.786-.592,3.434-1.541,5.168-2.269-.077-.11-.229-.327-.307-.436a2.345,2.345,0,0,0,1.619-.082c-.095-.158-.286-.471-.381-.629l.538.053c-.023.113-.068.342-.088.454q20.641-9.467,41.282-18.94c.231-1.528.3-3.082.656-4.587-6.162,2.7-12.234,5.607-18.366,8.374" transform="translate(-709.871 -2177.428)" fill="#acabab"/>
      <path id="Path_3879" data-name="Path 3879" d="M1624.613,538.3c-.15-.192-.3-.387-.44-.583.3-.159.609-.313.926-.461-.158.353-.331.7-.486,1.045m7.148,16.3c-.206.343-.677-.079-.535-.374.185-.383.695.074.535.374m0,7.348c-.266.219-.624-.168-.547-.443.179-.561.819.1.547.443M1629,567.2c-.054-.331.506-.682.739-.379.076.361-.517.72-.739.379m-2.657.212c-.342-.019-.412-.168-.218-.446.338.013.408.162.218.446m-.665-23.657c-.183.338-.759.041-.586-.3.177-.3.761-.039.586.3m-26.624-30.077c-.054-.158-.16-.477-.212-.637.373.069.735.138,1.118.205C1599.751,513.546,1599.37,513.579,1599.057,513.679Zm-7.776,5.122q-.47.378-.5-.221.458-.381.5.221m-32.628,15.1c-.313.09-.43-.037-.352-.378.307-.087.424.038.352.378m-11.369,3.991c.058-.258.134-.515.214-.771a2.512,2.512,0,0,1,.663.354,5.316,5.316,0,0,1-.877.417m-.111.676c-.189.345-.618.289-.939.377.2-.377.241-.982.763-1.048a2.117,2.117,0,0,1,.177.671m-4.7,1.036a6.917,6.917,0,0,1-.064-.692,1.231,1.231,0,0,1,.8.719A3.411,3.411,0,0,1,1542.478,539.609Zm.331,1.129c-.292.278-.451.207-.482-.208.29-.272.451-.2.482.208m-21.814,9.122c-.033.145-.066.289-.093.431-.272-.232-.622-.407-.755-.758a1.186,1.186,0,0,1,1.529-.208c-.171.132-.51.4-.681.535m-10.166,6.465q-.612-.075-.25-.513.612.076.25.513m-3.454,1.4c-.095.069-.282.207-.376.279a9.07,9.07,0,0,0-1.236-.288,2.46,2.46,0,0,0,.487.746l.026.089-.357.236c-.123-.616-.239-1.233-.394-1.841.053-.071.108-.143.168-.214l.3.029a.942.942,0,0,0,.536.92l-.162-.611c.256-.007.511-.012.771-.023C1507.194,557.211,1507.315,557.552,1507.374,557.721Zm-14.793,6.563c-.369-.529.27-1,.705-1.19a.885.885,0,0,1-.705,1.19m-11.923,5.69c-.457-.02-.91-.04-1.358-.082a10.5,10.5,0,0,1,1.425-.831C1480.7,569.366,1480.681,569.669,1480.658,569.974Zm-6.046-.044c-.31.277-.483.222-.52-.164.309-.279.481-.224.52.164m-3.355,3.87c-.315.264-.483.2-.5-.2q.469-.4.5.2m-35.541,15.74c-.745.344-1.506-.066-2.247-.191a4.67,4.67,0,0,1-.766.211.488.488,0,0,1,.6-.609,14.45,14.45,0,0,1,1.541.422l.553-.275c.33.1.655.2.989.3A.547.547,0,0,1,1435.716,589.54Zm-11.429,4.295c-.3.252-.478.18-.53-.212.289-.255.467-.183.53.212m-5.829,2.462c-.178.175-.37.333-.559.492-.072-.127-.212-.381-.281-.51C1417.914,596.2,1418.4,595.744,1418.458,596.3Zm-8.085,5.52c-.166.311-.961.689-.807.034.177-.267.78-.542.807-.034m-1.65,1.569c-.277.269-.452.2-.522-.2q.409-.4.522.2m-3.747.064c.131-.492.436-.823.992-.712a1.174,1.174,0,0,1-.992.712m-2.315,1.135a5.34,5.34,0,0,1,1.456-.989c.2.224.4.456.584.7-.712-.077-1.366.633-2.04.29m-1.6,1.491c-.047-.142-.14-.422-.185-.561a.835.835,0,0,1,.931-.032c-.244.206-.493.4-.746.594m-1.381-.183c-.342.179-.683.353-1.028.524a1.875,1.875,0,0,1-.589-1.226,1.378,1.378,0,0,1,.777.437,1.815,1.815,0,0,1,1.667.3c-.277,0-.552-.013-.826-.037Zm235.137-47.5c.325-2.5-1.194-4.718-2.112-6.925-5.54-12.013-11.026-24.058-16.572-36.077a10.551,10.551,0,0,0-10.425-5.811c-2.278.161-4.273,1.362-6.323,2.244l.134.318c-.085-.035-.257-.112-.344-.149-.1.456-.3.491-.6.105a2.472,2.472,0,0,1-.721,1.161c-.016.1-.047.3-.064.394-.041-.04-.123-.117-.165-.154-.259.207-.529.408-.792.6.113-.307.239-.609.377-.911.017-.1.052-.29.074-.388-.712.321-1.422.645-2.138.94.2-.016.588-.041.786-.056-.161.64-.71.4-1.159.271-10.268,4.682-20.507,9.431-30.771,14.121-.37.063-.467.416-.65.671l.4.009c-.056.1-.167.3-.222.4-.124-.241-.239-.482-.348-.727-1.323.724-2.791,1.168-4.05,2a16.216,16.216,0,0,0-2.591,1.074l-8.14,3.738c.012.238.021.473.033.711-.093-.141-.276-.423-.369-.562q-3.294,1.529-6.605,3.034l.28.469c.107-.083.321-.248.424-.332-.064.234-.128.468-.185.7-.45-.168-.914-.451-1.377-.143-.074-.035-.228-.1-.305-.138-11.7,5.326-23.362,10.741-35.062,16.073-.112.2-.222.394-.33.588-.025-.089-.072-.269-.1-.358-.375.17-.753.33-1.13.488.023.163.071.492.094.657-.172-.151-.342-.3-.511-.454-1.936.889-3.879,1.769-5.808,2.675-.045.178-.132.54-.178.721l-.931-.227c-4.619,2.163-9.278,4.235-13.895,6.4-.118.341-.269.635-.608.274-17.119,7.826-34.206,15.726-51.328,23.545a3.6,3.6,0,0,1,.057.771c-.087-.183-.263-.55-.353-.733-.539.583-1.134,1.363-2.023.994-.078.669-.609,1.133-.91,1.705-.044-.078-.134-.233-.177-.312.406-.189.261-.647.308-.989-10.177,4.663-20.333,9.372-30.526,14,.083.063.248.183.329.244.026.423.084.843.08,1.267-.444.17-1,.179-1.25.649-.226.4-.73.206-1.1.236-.243.467-.556.889-.8,1.352a9.941,9.941,0,0,0,.01,1.058c-.18.351-.4.678-.571,1.035,14.264-6.47,28.47-13.072,42.72-19.579a14.881,14.881,0,0,0,1.462-.764c3.327-1.345,6.547-2.963,9.828-4.426q18.744-8.608,37.489-17.219l.064-.126a3.143,3.143,0,0,0-.639-.924l.494.243.368.576a4.36,4.36,0,0,0,1.305-.5c2.561-1.174,5.116-2.37,7.687-3.527.552-.217.967-.693,1.537-.875a10.525,10.525,0,0,1,2.293-.934c2.1-.857,4.128-1.876,6.191-2.812a12.873,12.873,0,0,0,3.323-1.8c-.026-.159-.08-.472-.106-.631a1.591,1.591,0,0,0,1-.251l.027.178-.627.164c.271.809.911.159,1.312-.165.773-.27,1.575-.467,2.325-.809q7.151-3.295,14.306-6.572c5.827-2.721,11.731-5.3,17.515-8.111a6.417,6.417,0,0,0,1.4-.648c.463-.184,1.2-.227,1.052-.915-.373.068-.743.132-.932.487-.476-.241-.947-.674-1.509-.387.062-.155.126-.311.2-.468a4.284,4.284,0,0,1,1.29.313c.48-.577,1.078-.2,1.484.219,1.328-.44,2.563-1.1,3.844-1.667a56.334,56.334,0,0,0,5.753-2.81,3.869,3.869,0,0,0,1.072-.319q3.88-1.8,7.776-3.574c-.111-.1-.332-.3-.441-.4l.342-.185c.033.145.1.433.13.578,7.36-3.4,14.735-6.76,22.1-10.16.8-.326,1.461-1.177,2.388-1.073.136-.164.276-.326.42-.493a3.768,3.768,0,0,0,1.883-.576c3.472-1.622,6.979-3.171,10.439-4.827a.864.864,0,0,1,.642-.419,27.653,27.653,0,0,1,3.042-.921,6.612,6.612,0,0,1,6.732,3.529c5.45,11.741,10.752,23.556,16.258,35.272.327.881.736,1.73,1.142,2.578.212-.258.428-.52.646-.782a1.2,1.2,0,0,1-.655.8,8.669,8.669,0,0,1,1.031,3.037,6.874,6.874,0,0,1-1.073,4.4c1.07-.691,1.5,1.452.442,1.7-.088-.152-.267-.457-.356-.61l.817-.013c-.247-.052-.492-.1-.735-.138-.167-.171-.331-.342-.488-.512-.411.441-.825.877-1.266,1.285.1.267.2.534.292.806-.369.116-.556-.378-.757-.578-1.68.8-3.328,1.68-5.042,2.4.119.3.249.6.387.9l-.1.707c.342.159.689.321,1.019.512-.379-.089-.745-.216-1.113-.318-.021-.322.2-.961-.364-.927L1622,567.5c.13.188.389.565.519.754l-.488-.029.023-.528a13.631,13.631,0,0,0-1.4,1.609c.646.162,1.2-.26,1.785-.451-.037.927-1.132,1.065-1.811.736.051-.442-.187-1.119.424-1.249.548-.087.424-.65.492-1.061-.622.285-1.253.546-1.869.822a9.506,9.506,0,0,1,.045,2.875c-.173-.019-.519-.059-.693-.08a17.01,17.01,0,0,0-.035,1.832c2.287-1.015,4.548-2.086,6.827-3.118a5.043,5.043,0,0,1-.164-.992c.05.114.15.344.2.459.331.006.669.016,1.008.023-.051-.31-.1-.622-.136-.935l.891-.029c.1.124.284.37.377.494.406-.207.809-.419,1.208-.654.16-.54.72-.74,1.134-1.05.553.274.945-.3,1.328-.609a7.141,7.141,0,0,0,2.011-2.878c-.467.3-.931.588-1.416.846-.292-.574-.724.046-1.07.153a16.8,16.8,0,0,1,1.443-2.175c.572,0,1.128-.5,1.69-.225a10.134,10.134,0,0,0,.669-3.205c-.109.048-.331.141-.442.187.068-.111.2-.339.271-.453a3.1,3.1,0,0,1-1.136-.212c.177-.231.368-.458.568-.679l-.233.451c.264.087.525.177.8.269" transform="translate(-1318.104 -481.928)" fill="#acabab"/>
      <path id="Path_3880" data-name="Path 3880" d="M1026.593,675.043a2.088,2.088,0,0,1-.774.89c.143-.384.194-.967.774-.89m9.2,7.072a1.707,1.707,0,0,1-1.172,1.066,2.5,2.5,0,0,1,1.172-1.066m-.358-.779a.736.736,0,0,1-1.06.267c.287-.214.765-.821,1.06-.267m24.664,21.721a1.651,1.651,0,0,1,.046,1.409c-.653-.293-.42-.988-.046-1.409m-3.3-6.921c.333.022.4.173.2.453-.337-.027-.4-.178-.2-.453M1046.476,671c.158-.338.6.01.455.287-.154.354-.641,0-.455-.287m5.9,2.074a1.083,1.083,0,0,1-.308.837l-.516-.269c.266-.2.538-.387.824-.567m-3.116-4.874.335.549c-.668.291-1.2-.337-1.733-.623a2.979,2.979,0,0,0,1.4.074m10.671-4.627a10,10,0,0,1-1.206.766c-.036-.066-.11-.2-.145-.259A3.46,3.46,0,0,1,1059.93,663.574Zm1.937-.072c0-.1,0-.308,0-.411.489-.289.978-.578,1.461-.885a1.244,1.244,0,0,1,1.035-1.569c0-.27,0-.541,0-.814l.2-.051a2.216,2.216,0,0,1,.089.99,5.663,5.663,0,0,0-1.221,1.887c-.719,1.168-1.84,2.029-2.523,3.211l-.493.081c-.084-.385.307-.576.52-.828-.137-.744.424-1.193.932-1.612m-1.324-.615c.327-.028.538.412.518.7-.356.378-1-.429-.518-.7m-1.29-3.332c.287-.246.462-.171.519.229-.3.251-.472.176-.519-.229m1.062-2c.238.079.478.161.719.249-.3.153-.613.31-.906.467.044-.239-.1-.589.187-.716m1.313-.114c.141.235.285.471.428.708.542.015,1.086.036,1.632.031.149.227.3.454.458.682-.662-.252-1.4-.638-2.1-.294q-.308-.178-.6-.359C1061.5,657.957,1061.563,657.7,1061.627,657.444Zm7.334,13.534a1.255,1.255,0,0,1,.957,1.331,1.369,1.369,0,0,1-.957-1.331m-1.463-1.5a5.786,5.786,0,0,1,.97-.213c-.322.241-.645.472-.965.7,0-.122,0-.368-.006-.489m-.238.658c-.224.165-.468.328-.687.48a3.762,3.762,0,0,1-1.056.708c-.078-.27-.152-.54-.213-.812a2.726,2.726,0,0,1,1.119-.222c.017-.064.051-.191.067-.255C1066.745,670.073,1067,670.107,1067.261,670.138Zm-.852-.48c.2-.536.75-.7,1.216-.944.044.076.129.228.171.3a5.647,5.647,0,0,0-1.387.639m5.083.8c.082.334-.453.4-.685.469a.448.448,0,0,1,.082-.474c.148-.117.65-.435.6.006m1.5,1.56a2.256,2.256,0,0,1,.375-1.09c.1.125.278.377.369.5C1073.554,671.581,1073.181,671.875,1073,672.023Zm-7.776-12.584a.945.945,0,0,1,.7-.066.806.806,0,0,1-.63.635.358.358,0,0,1-.067-.569Zm5.768-.4a8.641,8.641,0,0,1-1.273.789c-.131-.677.721-1.112,1.273-.789m-2.865-4.969q.6.045.253.5c-.411-.021-.5-.189-.253-.5m11.386-3.177a1.61,1.61,0,0,1,.778-.515c.24.461-.651,1.084-.778.515m3.232,9.413a4.276,4.276,0,0,0,.942-.823c.2,0,.485-.16.594.1a8.07,8.07,0,0,0-.712,1C1083.287,660.493,1083.015,660.4,1082.743,660.308Zm1.36,4.675c.145-.41.875-.1.734.286-.185.4-.849.12-.734-.286m17.471,14.137c.1.262.211.526.322.791-.166.2-.329.4-.487.6a2.033,2.033,0,0,1,.166-1.393Zm-2.039-4.065c.293-.285.47-.234.527.145q-.454.438-.527-.145m6.149,2.811c-.285.336-.668-.192-.375-.438.274-.345.672.2.375.438m.226-2.813c-.08.5-1.185.451-.7-.09.156-.212.765-.328.7.09M1094.47,663.63c.141-.394.276-.789.434-1.18a5.151,5.151,0,0,1,.436,1.568c-.055-.178-.167-.537-.225-.716l-.645.328m.28-4.128c.046.439-.772.316-.744-.054a.472.472,0,0,1,.744.054m-6.514-9.58c.325-.284.852.273.485.558-.348.312-.814-.266-.485-.558m-.207-3.206a1.136,1.136,0,0,1-.577.792c-.072-.117-.215-.354-.287-.471a8.642,8.642,0,0,1,.864-.321Zm1.2,3.41c-.4.147-.4-.476-.143-.623.481-.394.576.516.143.623m-1.773-4.749c.327.022.388.176.185.456-.335-.03-.4-.18-.185-.456m.97.216a4.944,4.944,0,0,1,.856,1l-.651.167c.065-.156.133-.311.2-.471-.148-.227-.283-.456-.409-.694m5.625,1.993a7.666,7.666,0,0,1-1.276.638c-.1-.613,1.05-1.457,1.276-.638m5.983,9.671c-.3.26-.476.2-.536-.19.284-.267.462-.2.536.19m-.681-.612a6.533,6.533,0,0,1-1.024-.3c.1-.1.322-.29.428-.388.379-.489,1.132.439.6.688m-2.5,1.756c.205-.345.771,0,.708.347-.2.347-.807,0-.708-.347m4.933,4.379q.043-.493.453-.159c-.031.335-.183.386-.453.159m5.924,12.519a2.1,2.1,0,0,0,.782.884l-.381.053a.685.685,0,0,1-.521.638,2.635,2.635,0,0,1,.12-1.575m-5.7-17.275c-.417.324-.887.573-1.322.861,0,.108,0,.325,0,.433-.854.914-1.552,1.979-2.487,2.815a3.553,3.553,0,0,1-1.469,1.339,2.664,2.664,0,0,1,.97-1.314c.371-.984,1.176-1.716,1.615-2.668.124-.421.618-.211.944-.278.337-.582.645-1.185,1.031-1.742a.474.474,0,0,1,.715.555Zm-3.43-8.067c.462.047.19,1.009-.209.983-.253-.267-.046-.781.209-.983m12.49,26.893c-.143,0-.428.015-.571.019-.021.095-.061.287-.082.382-.2-.467-.79-.739-.62-1.314.206.035.616.1.822.134Zm-10.152-20.862c.051-.422.759-.33.639.107-.059.425-.763.327-.639-.107m-5.3-11.31c.55.257,1.2.012,1.722.321a3.778,3.778,0,0,1-1.282.636C1096.287,645.193,1095.823,644.959,1095.617,644.676Zm21.591,23.2.476-.107c.3.283.609.559.9.858a4.607,4.607,0,0,1-1.372-.751m-3.219-1.2c.4.038.487.208.261.511-.411-.037-.5-.207-.261-.511m-1.117.174a.37.37,0,0,1,.681.277c-.122.5-.824.124-.681-.277m-.624,1.5c.221.514-.413.474-.719.623.065-.252.122-.506.2-.76a4.957,4.957,0,0,1-1-.675c.171-.241.341-.492.531-.727q.457,0,.925-.037c-.01.022-.027.067-.034.091-.223.11-.443.222-.656.336l-.127-.382c-.689.875.782.82.886,1.532Zm-2.409-14.679q-.445.422-.518-.171c.289-.277.464-.22.518.171m2.079,1.142q-.5-.045-.16-.462.485.044.16.462m-1.368-5.8a1.293,1.293,0,0,1,.961-.234c-.032.586-.639.606-.961.234m-10.789-5.96c.226.733-.965,1-1.492,1.217.135-.724.915-.94,1.492-1.217m4.962-.528q.434-.391.5.214-.457.392-.5-.214m1.4.395c.171.369-.443.69-.63.321s.441-.7.63-.321m.4-3.418c.238-.28.476.033.7.161-.072.129-.221.388-.293.52-.23-.122-.729-.389-.409-.681m3.329-4.579a16.244,16.244,0,0,1,2.032-.32c-.093-.136-.284-.41-.379-.546.067-.033.2-.092.263-.123.148.356.3.71.464,1.061-.358.227-.721.445-1.077.662-.154-.11-.3-.219-.449-.331C1110.4,635.309,1109.4,635.49,1109.852,634.926Zm3.972,3.265c.3-.258.466-.188.506.207-.306.262-.474.194-.506-.207m14.275,30.775c-.2.364-.715-.041-.516-.353.2-.347.694.046.516.353m1.223,5.392c-.295.265-.47.2-.529-.2.281-.261.457-.194.529.2m-1.585,2.734a5.68,5.68,0,0,0-1.333.514c.061.086.181.259.242.344l-.156.063c-.031-.135-.093-.407-.124-.542.232-.13.472-.263.717-.391l.272-.567a7.106,7.106,0,0,1,.81.683c.28.077.565.153.85.239a1.785,1.785,0,0,1-1.278-.343m-.687,3.619a2.771,2.771,0,0,1-.615,1.283c-.109-.354-.2-.709-.3-1.062.146-.127.295-.252.451-.38.272-.117.521-.285.788-.431.183.243-.219.413-.32.591m-2.6.212-.363.25-.03-.053c.112-.134.333-.4.441-.536-.188-.042-.571-.123-.763-.164-.063-.126-.192-.374-.257-.5l.681.329c-.01-.313-.006-.625.013-.937.293-.128.6-.213.906-.33-.333-.129-.67-.248-1-.379a1.247,1.247,0,0,1,1.594.452c-.35.194-1.218.148-.972.764-.106.059-.32.183-.428.243a.718.718,0,0,1,.32.7c-.084.542.576.7.934.9a4.065,4.065,0,0,0-.2-.831c.1-.214.2-.432.3-.649a9.419,9.419,0,0,1,.072,1.717,1.921,1.921,0,0,1-1.256-.972Zm-5.6,4.485q-.417.417-.491-.209c.272-.272.438-.2.491.209m-3.09-5.305q.431-.376.517.22c-.3.253-.478.178-.517-.22m-.706,3.37c-.122-.3-.236-.6-.341-.909l.388-.171c.027.1.074.292.1.388a3.672,3.672,0,0,1,.913.185c-.352.185-.709.347-1.063.508m-3.986,2.771a13.128,13.128,0,0,0,.07-1.421,7.509,7.509,0,0,1,.767,1.1c-.278.115-.561.219-.837.32m-2.194-.187c-.185-.226-.361-.455-.536-.682l.51-.024c-.181-.287-.356-.576-.525-.866l.576-.256a9.41,9.41,0,0,0,.014,1.061,7.091,7.091,0,0,1,.989-.064c-.348.277-.685.558-1.027.831m2.7,3.816c-.27-.122-.557-.243-.816-.36a.859.859,0,0,1,.584-.852c.089.4.158.807.232,1.212m-1.1-.867c-.244.241-.386.18-.424-.182.24-.24.384-.182.424.182m-1.733.473c-.015-.43.217-.818.7-.755.223.495-.4.583-.7.755m-11.356.472a.591.591,0,0,1,.835-.115c.156.451-.816.541-.835.115m-2.473-1.8c-.08.384-.774.34-.685-.088.046-.406.772-.337.685.088m-6.214-10.724c-.394-.046-.479-.229-.261-.547q.579.075.261.547m-1.775.678c.181-.023.544-.066.723-.086-.011.261-.011.521-.008.784.011-.669-.508-.431-.936-.287a.745.745,0,0,1,.148-.985,8.934,8.934,0,0,1-1.356-.437c.261-.138.533-.265.81-.388.316.041.641.339.951.1.23-.175.344.279.542.315C1087.3,677.219,1087.184,677.764,1086.915,678.1Zm2.209,4.183c-.3.254-.475.183-.512-.216.3-.258.468-.186.512.216m-6.111-10.593c.207-.476,1.022.107.67.47a.481.481,0,0,1-.67-.47m-3.308-6.183c.023-.082.065-.249.086-.334.382-.036.761-.076,1.149-.12-.011.189-.027.376-.04.564-.4-.02-.8-.08-1.195-.111M1092.3,695.94a5.681,5.681,0,0,1,.868-1.5c.086.661-.051,1.446-.868,1.5m-16.755-19.925.013-.445c.063.069.186.209.245.279-.206.186-.388.381-.6.551a7.658,7.658,0,0,1-.578-.984c-.085-.087-.255-.261-.339-.348a.981.981,0,0,1,.8.766C1075.2,675.879,1075.426,675.968,1075.54,676.015Zm7.467,16.6c-.546-.217-1.084-.454-1.623-.685.329-.184.668-.366,1.008-.546a6.645,6.645,0,0,1,.615,1.231m-9.743-17.422a.511.511,0,0,1,.708-.09c.35.261-.154.632-.434.486-.068-.1-.207-.3-.274-.4m1.317.654c.076.7-.544.966-1.09,1.168a2.141,2.141,0,0,1,.2-.381c.381-.141.594-.519.886-.787m5.628,17.166a2.788,2.788,0,0,1,1.353.316,1.185,1.185,0,0,1-1.353-.316m-7.376-11.873a2.734,2.734,0,0,1,1.1-.419,4.948,4.948,0,0,1,.54-.491c.714.608-.226,1.257-.449,1.86a9.19,9.19,0,0,0-1.027.019q-.3.418-.574.852A2.752,2.752,0,0,1,1072.833,681.138Zm-1.83.127a1.692,1.692,0,0,1-1.265-.945,2.223,2.223,0,0,1,1.448.269c-.057.228-.12.453-.183.676m.495-.206c.078-.025.236-.072.314-.1l.021.2-.187.143-.2-.081Zm5.321,23.618c.036-.388.217-.467.536-.231q-.068.575-.536.231m-.715-.29q-.4.344-.434-.17c.255-.231.4-.176.434.17m-7.05,3.354c-.3-.079-.59-.158-.875-.241.2-.439.634-.413,1.031-.246-.051.163-.1.327-.156.487m-5.753-2.148a6.7,6.7,0,0,1-.424-.919q.494-.157,1-.294a6.1,6.1,0,0,1-.575,1.213m-4.935,2.044c-.048-.167-.145-.495-.194-.66.274-.051.55-.1.831-.141a2.626,2.626,0,0,1-.637.8m-5.846-2.778c-.112-.947-.98-1.579-1.123-2.5.069-.1.206-.317.274-.423a2.256,2.256,0,0,1,.626,1.909c.687-.038.5.611.422,1.034Zm-2.277-4.706c.089-.059.268-.175.361-.233a2.1,2.1,0,0,0,.523,1.156c-.031.174-.055.348-.078.524-.282-.37-.658-.753-.51-1.259Zm.224,12.978a10.092,10.092,0,0,0-1.174-.141c.072.178.225.53.3.706l-.3.129c.1.126.3.38.405.506-.076-.078-.232-.232-.312-.309-.057.082-.181.241-.24.32a6.223,6.223,0,0,0-.535-2.052,8.973,8.973,0,0,0,1.351.042c.261-.237.1-.616.143-.922a1.3,1.3,0,0,0,.961-.111,3.92,3.92,0,0,1-.594,1.832m-6.056-1.115-.253-.438c.36-.2.721-.4,1.09-.595.243.6-.485.744-.837,1.033m3.038,4.535c-.082.361-.765.39-.675-.057.04-.4.8-.4.675.057m-4.286,1.225-.771-.156q-.22-.385-.426-.771a1.933,1.933,0,0,1,1.463.057c-.086.292-.177.581-.266.87m77.973-67.728c.778-.476.424,1-.1.342.025-.084.078-.256.1-.342m7.252,13.833c.247.042.554.568.213.673-.251-.045-.531-.565-.213-.673m-5.141-11.415c.362-.151.681.476.306.653-.373.135-.7-.474-.306-.653m1.592-.209c.765.439-.148,1.076-.529,1.411.112-.472.014-1.175.529-1.411m-2.642-4.51a5.872,5.872,0,0,1,.687-.5c.042.394.365.874.057,1.225-.485.194-.622-.392-.744-.726m-2.428-10.705a.738.738,0,0,1-.995.682,1.5,1.5,0,0,1,.995-.682m10.245,20.739c-.006.465-.864.4-.925.017.23-.163.715-.275.925-.017m2.751,15.67c-.114.024-.342.074-.455.1.647.581-.175.964-.481,1.415q-.151-.388-.3-.775a3.713,3.713,0,0,1,1.206-.929c.01.048.025.142.034.189Zm.234,2.5a2.05,2.05,0,0,0-.968.139c.175-.346.3-.848.789-.833.07.228.114.462.179.693m1.821-9.09c.253-.207.407-.143.462.2-.264.209-.42.144-.462-.2m3.35,6.087c-.306.249-.479.176-.523-.217.306-.256.481-.185.523.217m-6.339,6.895c-.428.2-.824-.679-.295-.816.375.006.388.553.295.816m-93.787,38.13c-.371-.026-.455-.213-.251-.558.369.024.457.209.251.558m1.368,3.107c-.057.413-.759.346-.643-.093.042-.417.776-.354.643.093m-2.863-2.892c.224-.191.458-.384.691-.573a1.846,1.846,0,0,1,.576,1.677,2.234,2.234,0,0,0-1.267-1.1M1032.8,709.8c.342.008.4.149.167.424-.344-.007-.4-.15-.167-.424m2.2,10.646c-.2.194-.4.386-.6.578a.75.75,0,0,1,.527-1.157q.029.29.068.578m.664,2.544a2.767,2.767,0,0,0-.662.937c-.185-.188-.363-.376-.542-.563a7.308,7.308,0,0,1,1.2-.794c0,.1,0,.313,0,.419m-22.253-37.3c-.277.119-.553.226-.832.323-.2-.442.215-.849.428-1.195C1013.138,685.109,1013.281,685.4,1013.406,685.692Zm.847-5.9c.1.3.37.683-.11.785a.759.759,0,0,1-.483-.5l.594-.283Zm1.929-1.514c.186.167.362.337.555.5l-.525.145c.045.171.139.516.183.687-.186-.152-.37-.309-.543-.467A6.708,6.708,0,0,0,1016.182,678.283Zm-1.453,16.219c-.329-.046-.708-.039-.856-.4.443-.387.712-.014.856.4m2.336,8.964a.449.449,0,0,1-.036-.524c.254-.264.809-.331.9.122.348.484-.748,1-.868.4m10.279,21.825c-.316.219-.812-.215-.858-.537.3-.179.85.186.858.537m-7.452-.06c-1.225.136-2.28.982-3.547.868a3.871,3.871,0,0,1,3.333-.988,6.67,6.67,0,0,1,1.631-1l.392.179a5.672,5.672,0,0,1,2.551-.9c.046-.1.133-.291.177-.389.476,0,1.25-.509,1.471.171-2.178.067-3.877,1.77-6.008,2.056Zm2.279,4.992c-.462-.225-.616-.828-.932-1.218q-.331-.076-.651-.183c.023-.224.128-.3.322-.241.826.058,1.2.922,1.9,1.263-.162.095-.483.284-.641.379m1.383-7.5c-.405.119-.333-.5-.091-.63.514-.414.538.536.091.63m-1.889-6.854c.177-.069.536-.2.714-.271.049.151.144.451.194.6a2.552,2.552,0,0,1-.908-.33m2.4,4.623c.068-.409.776-.271.683.134s-.778.279-.683-.134m-16.719-10.387a2.008,2.008,0,0,0-2.188-.469,5.633,5.633,0,0,1-.308-.609c.351-.745,1.209-.284,1.793-.143C1007.176,709.022,1007.319,709.616,1007.34,710.106Zm6.525,15.268q-.407.3-.446-.217c.264-.2.413-.125.446.217m-.872.087c-.313.1-.614.212-.926.281-.367-.248-.189-.643-.093-.981q.479-.182.969-.355c.014.351.028.7.051,1.055m-.154,1.642c-.237.34-.47.682-.693,1.029.072-.175.215-.524.286-.7q-.532.039-1.056.113a10.388,10.388,0,0,1,.457-.991c.089.142.264.427.352.568a2.939,2.939,0,0,1,.608-1.006,8.091,8.091,0,0,0,.047.986m-2.372-.534-.108-.258.4-.055c-.02-.169-.063-.508-.085-.68.4.155.8.311,1.194.483l-.756.205a1.653,1.653,0,0,1-.451,1.456,14.148,14.148,0,0,1,.2-1.435Zm.827,4.829c-.342.438,0,1.033-.215,1.51a8.035,8.035,0,0,1-.672.934c.37.04.736.078,1.11.126-.233.169-.467.336-.7.5a6.484,6.484,0,0,1-.44,1.169,3,3,0,0,0-.8-.024c-.189-.247-.368-.5-.539-.751-.265.179-.525.355-.784.528.144-.182.29-.363.444-.54,0-.125.006-.37.009-.492.176-.184.361-.368.543-.552l.286.714c.024-.212.071-.64.093-.852.352-.18.323-.508.25-.841.426-.591.078-1.339-.043-1.974l.62-.034c-.072-.13-.22-.385-.294-.511l.717-.246c-.256-.332-.493-.061-.7.132-.022-.155-.068-.463-.089-.616.444-.424-.018-1.047-.027-1.555a2.09,2.09,0,0,1,1.18.532c-.129-.287-.252-.577-.372-.866.492-.117.543.451.775.725.114-.112.343-.333.458-.443a27.16,27.16,0,0,1,.237,2.722A9.87,9.87,0,0,1,1011.294,731.4Zm.555,2.825c-.365.173-.39-.439-.111-.534.372-.186.394.435.111.534m-3.466,2.173c-.071-.177-.217-.531-.292-.708.269.117.536.238.8.365C1008.768,736.139,1008.511,736.311,1008.382,736.4Zm.444-5.935c-.284.293-.729-.191-.366-.419.282-.287.715.183.366.419m-12.17-6.472c-.127-.529.341-1.025.183-1.549.036-.022.106-.067.139-.09a.765.765,0,0,0,.738.431,6.558,6.558,0,0,1,.157,1.857c-.265.036-.53.073-.788.113C996.943,724.5,996.779,724.252,996.657,723.99Zm-7.727-2.149c.187-.42.788.005.571.355-.2.39-.774-.009-.571-.355m8.268,18.172a11.338,11.338,0,0,1,.457-1.2c-.036.441.1,1.058-.457,1.2m.684,2.092c-.457.125-.547-.814-.214-.9.194.219.477.64.214.9m-4.5-6.464c.2.034.406.072.612.11q.46-.265.93-.513c.062.2.115.4.165.6-.259.2-.54.372-.8.562A1.236,1.236,0,0,1,993.385,735.641Zm-11.094-22.122c-.331.142-.618-.411-.3-.588s.628.417.3.588m-4.574-13.258c.311-.1.425.014.342.352-.318.108-.432-.011-.342-.352m8.891-5.931q.47-.158.357.348c-.317.1-.438-.014-.357-.348m11.063-5.285c.371.111.817.191.953.62a.576.576,0,0,1-.965.043c0-.165.01-.5.011-.662m9.3-5.144q.512.017.166.428-.516-.024-.166-.428m-24.232,41.137a2.678,2.678,0,0,1-.885-.356c.148-.073.447-.216.6-.287.074.16.219.482.29.643Zm-9.328-9.919c-.273.3-.749-.155-.384-.4.269-.315.749.144.384.4m-13.9-10.758q-.423-.144-.831-.3c.292-.2.588-.4.892-.6q-.031.449-.061.9m4.19,13.758c-.081-.16-.246-.474-.328-.631a5.889,5.889,0,0,1,.852-.5c-.16.384-.344.755-.524,1.128m2.138,3.2c-.032.888-1.211.386-1.273,1.259-.663.312-.975,1.1-1.714,1.249-.527.338-.738,1.107-1.392,1.27a1.786,1.786,0,0,1-.067-.989c.489-.286.976-.582,1.465-.876.038-.124.115-.374.154-.5a9.04,9.04,0,0,1,1.726-.847c.022-.144.066-.436.087-.582.272-.3.684.009,1.014.012Zm6.425,13c-.329.089-.628-.141-.919-.235.2-.139.591-.424.787-.565.123.261.494.557.132.8m2.179,8.533c-.346.019-.5-.277-.678-.5.158-.088.475-.27.632-.36a1.11,1.11,0,0,1,.046.863m-4.883-6.614a3.577,3.577,0,0,0-1.348.11c-.1-.343-.191-.686-.279-1.031.391.209.8.394,1.208.571.32-.114.671-.3.973-.021C969.933,735.991,969.749,736.114,969.567,736.237Zm-5.315-10.312q.417.258.836.521a.778.778,0,0,0-.128,1.055c-.366-.116-1.029-.146-.5-.62A.969.969,0,0,1,964.253,725.924Zm1.139,3.5a3.839,3.839,0,0,1-1.143-1.008c.451.165,1.272.388,1.143,1.008m-2.54-3.994c.219-.341.651.1.529.391-.2.373-.711-.095-.529-.391m.353,2.333c-.336-.013-.393-.158-.166-.435.335.009.392.156.166.435M967,740.384q-.42.411-.493-.213c.276-.272.441-.2.493.213m-7.351-13.812c-.033-.145-.1-.434-.129-.577.165-.048.493-.137.659-.181-.11.3-.177.655-.53.758m-1.5-1.947c-.056-.178-.167-.534-.225-.708.252.166.78.143.747.539-.173.061-.349.118-.522.17m9.614,19.979c-.208.346-.679-.077-.525-.372.191-.374.7.071.525.372M956.9,722.978c.276-.288.4-.914.91-.816a1.163,1.163,0,0,0-.2,1.111c-.121.046-.362.135-.482.183-.058-.121-.172-.358-.227-.477Zm11.692,26.265c-.073.383-.786.382-.678-.068.046-.4.776-.364.678.068m-11.343-22.4q-.473.4-.524-.178.461-.4.524.178m-2.244,11.906c-.469-.032-1.361-.437-.643-.9.426.089.474.578.643.9m-5.383-7.889c.172.373-.472.677-.63.284-.176-.384.452-.665.63-.284m.042-5.252a.331.331,0,0,1-.649-.123c.053-.432.746-.3.649.123m16.248,26.549c.079-.706.667-.35,1.108-.206-.366.08-.742.142-1.108.206m-8.562,2.195c.044-.348-.038-.866.347-1.033.184.248.359.5.528.766-.277.135-.55.346-.875.267m-.757,2.067c-.175-.184-.339-.371-.494-.569a6.34,6.34,0,0,1,1.184-.727c.31.422-.1,1.421-.69,1.3M935.8,721.735a3.09,3.09,0,0,1-.231-1.438,5.115,5.115,0,0,0,1.093-.087c.017.049.053.151.071.2h-.547A.933.933,0,0,1,935.8,721.735Zm-.122.73c-.265-.33.118-.441.349-.591.077.161.23.479.307.64C936.118,722.506,935.9,722.49,935.682,722.465Zm-2.627-6.034q.582.051.24.521c-.395-.02-.475-.195-.24-.521m2,5.327c-.222.467-.779.024-.626-.385.276-.362.938-.006.626.385m6.736,16.564a2.542,2.542,0,0,1,.342-.955c.368.453.209.788-.342.955m-3.277-18.356c.064-.4.8-.349.661.1-.074.4-.77.328-.661-.1m16.091,4.329a8.384,8.384,0,0,1-.043-1.13,2.015,2.015,0,0,1,2.108.965c-.416.114-.828.223-1.237.341-.09-.139-.272-.418-.362-.558C954.951,724.009,954.717,724.2,954.6,724.294Zm4.839,11.319c-.172.3-.342.315-.51.038.168-.3.337-.318.51-.038m-4.247-8.644a1.473,1.473,0,0,1-1.1-.7c.119-.5.2-1.014.353-1.506.273.143.542.3.812.456a6.087,6.087,0,0,0-.365.848,4.421,4.421,0,0,1,1.631,1.109l-.675.028c.077.177.23.534.306.711C955.691,727.76,955.186,727.541,955.193,726.969Zm-.311-4.484a9.344,9.344,0,0,1,.22-1.13c.108.1.327.3.436.4.181-.148.547-.789.737-.344-.1.1-.3.306-.4.407l.249.475C955.716,722.433,955.086,723.229,954.882,722.485Zm-3.627-9.976q.459-.42.53.158c-.309.279-.486.225-.53-.158m4.485,5.166c.16.361-.45.716-.625.324-.171-.367.433-.706.625-.324m2.625,5.863c-.369.058-.362-.506-.187-.7.425-.443.579.567.187.7m-4.273-15.676.459.1a2.089,2.089,0,0,0,.3,1.481c-.251-.285-.487-.588-.734-.872-.011-.238-.023-.476-.028-.714m-7.713,54.6a6.974,6.974,0,0,1,.613-.426c.285.215.573.43.859.648C947.446,763.111,946.391,763.246,946.378,762.464Zm-1.5,2.643a1.555,1.555,0,0,1-.387-.9c.343.111.941.653.387.9M940.5,749.029c.167-.307.332-.313.5-.025-.171.3-.336.31-.5.025m-1.351,2.213c-.033-.651.1-1.353.86-1.476-.007.61-.543,1.012-.86,1.476m-.525.828c-.251.224-.4.164-.451-.179.245-.226.4-.166.451.179m-6.761-19.046c-.274.2-.433.134-.472-.194.27-.2.426-.136.472.194m-2.184-13.474c.006-.359.2-1.262.665-.781.514.438-.388.612-.665.781m-.944,5.4a5.476,5.476,0,0,1-.689-1.235,4.173,4.173,0,0,1,1.187.389c.537.28-.219.716-.5.846m-6.779,2.6c-.418-.076-.2-.63-.268-.916.289.03.573.067.863.108C922.419,727.016,922.381,727.581,921.951,727.546Zm-3.128-.934q-.444.393-.485-.227.432-.392.485.227m.107,2.688c.481.051.64.5.839.869-.543.089-.621-.526-.839-.869m5.725,16.256c-.293.008-.586.029-.875.059-.035-.436.245-.924.637-.409.145-.269.329-.516.674-.475-.149.273-.289.549-.435.825m2.035,4.092c-.3.242-.467.165-.51-.237.3-.248.469-.172.51.237m-10.442-19.664c-.306-.183-.016-.711.3-.652.3.178.044.76-.3.652m7.483,34.308.711-.277c-.058.1-.114.2-.168.3-.107,0-.32-.011-.427-.013a12.977,12.977,0,0,0,.68,2.466l-.215.117c.216.24.443.482.669.721l-.342.16c.938.645.916,1.859,1.379,2.807.232.183.471.36.71.542-.327.134-.58-.057-.815-.241a6.8,6.8,0,0,1-1.382-2.848,7.846,7.846,0,0,1-1.137-1.023l.793-.312c-.08.008-.235.022-.316.028.009-.769-.692-1.14-1.243-1.518.181.049.539.143.717.193.211-.935-.386-1.707-.782-2.49-.245-.292.049-.62.2-.87-.192-.261-.368-.526-.555-.786l.368-.019q-.382-.639-.727-1.3c-.059.259-.113.519-.172.777a1.525,1.525,0,0,1-.386-1.278c.246.017.491.033.74.053-.354-.22-.531-1.392-1.027-.958-.06.082-.177.244-.238.326-.055-.425.432-.716.279-1.139l.158-.094c.025.165.074.494.1.658l.449-.188c-.585.421-.006.81.48.566a11.557,11.557,0,0,0,.116,1.205A7.286,7.286,0,0,1,923.731,764.291Zm-3.33,1.069c-.219-.4.133-.6.443-.774.445.372-.211.549-.443.774m1.359,7.9c-.979-.037-1.312,1.494-2.286,1.018a6.658,6.658,0,0,0,2.158-1.826c.046.269.089.536.128.807m-3.582-1.6c-.089.364-.817.367-.714-.073.1-.332.815-.38.714.073m-14.154-21.983c-.058.233-.118.468-.184.7,0-.172.009-.513.011-.685-.1-.027-.313-.084-.417-.114.089-.1.263-.315.352-.42l.1.378a7.628,7.628,0,0,1,.758-.24Zm-7.2.681c-.324.095-.612-.443-.315-.636.332-.116.634.451.315.636m4.525,1.618c.207.417.074,1.3-.591.913.043.781-1.227.721-.825,1.53-.163-.173-.331-.342-.481-.524a4.132,4.132,0,0,1,.526-.527c.277-.24.562-.475.834-.723.17-.231.35-.453.538-.669m5.013,8.67c.336.032.71.059.9.386-.424.445-.688.024-.9-.386m7.15,19.825-.9-.264a6.982,6.982,0,0,1-.1-1.242,4.285,4.285,0,0,1,1.467-.885,4.548,4.548,0,0,0-.463,2.392m-10.381.155c-.409-.025-.5-.191-.261-.506.4.034.485.2.261.506m-10.6-16.115c-.2.367-.706-.069-.535-.372.2-.342.684.071.535.372m-2.983-5.245c-.338-.235.173-.677.46-.558.3.231-.181.675-.46.558m-.587,1.1,0-.029c.291-.206.578-.418.866-.63.019.273.042.547.062.822C889.586,760.47,889.276,760.412,888.966,760.369Zm-1.992-3.273c.227-.536.482-1.062.682-1.611-.023.1-.073.3-.1.4.154.542.318,1.082.436,1.636C887.634,757.456,887.172,757.454,886.974,757.1Zm2.2,4.465c-.278.3-.443.251-.5-.15.282-.3.448-.253.5.15m-.5,1.482c-.1.054-.3.156-.4.207-.106.333-.223.663-.331,1-.13-.131-.255-.263-.379-.392.135-.083.4-.25.538-.332l-.122-.306a8.315,8.315,0,0,1-1.083.141,6.32,6.32,0,0,0,1.723-.734C888.632,762.727,888.659,762.937,888.673,763.042Zm4.662,13.09c.125.465-.637.433-.7.061-.038-.409.619-.427.7-.061m-8.6-16.664c-.25.231-.4.173-.439-.178q.373-.345.439.178m-6.966-17.033a6.172,6.172,0,0,0,1.055.71c.035.589.074,1.174.1,1.763-.427-.716-.863-1.423-1.3-2.13.038-.084.114-.259.15-.343m2.763,1.035c.3-.275.46-.209.5.2-.3.274-.463.208-.5-.2m9.906-1.217c.054.179.163.535.219.714a1.488,1.488,0,0,1-1.089-.237Q890,742.483,890.442,742.254Zm2.6-3.419c.234-.188.47-.378.7-.573-.071.216-.155.428-.231.639.243.214.482.435.712.666-.373.049-.74.094-1.113.133a5.248,5.248,0,0,0,.424-1.024c-.124.039-.37.118-.493.159m3.147-1.719c.431-.322.711.625.255.752-.4.078-.441-.526-.255-.752m5.867-3.157c-.065-.518.7-.1.617.257.179.665-.752.162-.617-.257m11.682-1.854c.048.089.149.262.2.348a4.591,4.591,0,0,1,1-.843c-.07-.09-.213-.267-.284-.353a5.371,5.371,0,0,0,1.5-.906c.03.043.088.13.118.173-.3.23-.589.462-.88.7-.025.121-.073.355-.1.472a5.174,5.174,0,0,0-1.535,1.594c-.012-.392-.013-.787-.018-1.181Zm1.665-4.764c0,.037.015.112.019.149-.162.261-.3.534-.465.793l-.388-.349a2.3,2.3,0,0,0,.835-.592m15.939,13.514c2.385-1.1,4.776-2.188,7.159-3.29.743,1.571,1.456,3.159,2.187,4.74-1.365.619-2.715,1.272-4.093,1.856a20.319,20.319,0,0,0,2.712,1.064,5.216,5.216,0,0,1,2.342,1.305c.157,0,.469-.009.627-.014a2.768,2.768,0,0,1-.456,2.143,16.437,16.437,0,0,1-.169-1.92c-.334.089-.668.358-1.024.2A14.032,14.032,0,0,0,936.8,745.4a7.823,7.823,0,0,0-1.194-.77c-.694.334-1.4.651-2.091.981q2.349,5.087,4.681,10.179l9.007-4.136c.727,1.582,1.448,3.164,2.183,4.742q-7.113,3.29-14.242,6.545c.206.369.41.735.627,1.1l-.3.158c.115-.009.344-.023.456-.031a5.948,5.948,0,0,1,1.112,2.056c.259.135.516.272.779.407l-.043.03c-.133.049-.4.143-.535.191.509.506,1.541.619,1.426,1.54a2.048,2.048,0,0,1,.584,1.014q22.935-10.509,45.855-21.05c-.035-.547.409-.956.431-1.488a15.956,15.956,0,0,0,.365-2.595c.142-.21.289-.417.439-.626-.13-1.055.417-2.018.543-3.045.042-.59.592-1.021.628-1.581-.126.027-.384.081-.512.106q-2.895,1.329-5.787,2.658c-.38.051-.464.425-.637.686l.344.01c-.045.1-.131.306-.176.407-.14-.243-.277-.485-.414-.728-1.057.517-2.114,1.054-3.216,1.47-3.5-7.514-6.937-15.055-10.387-22.592-.319.082-.638.153-.961.2.241-.222.49-.437.747-.649q-2.325-5.062-4.65-10.126l10.527-4.834a1.148,1.148,0,0,1,.448-1.242c-.054.381-.137.758-.2,1.137,1.153-.542,2.315-1.068,3.473-1.6.734,1.582,1.457,3.167,2.185,4.752q-4.507,2.073-9.015,4.142c1.325,2.925,2.707,5.827,4.016,8.763,2.393-1.083,4.776-2.188,7.163-3.284.731,1.574,1.442,3.161,2.183,4.731-2.377,1.117-4.768,2.2-7.156,3.294,1.548,3.4,3.122,6.787,4.67,10.187,2.361-1.051,4.69-2.167,7.053-3.213.067-.1.2-.307.264-.409.13.013.385.039.512.05.363-.177.732-.352,1.1-.525.189.092.386.182.582.271-.028.119-.087.352-.116.469.557,1.342,1.216,2.642,1.8,3.975-1.137.514-2.257,1.065-3.412,1.531l-.062.186c.077.163.235.49.313.653a9.672,9.672,0,0,1-.458,2.526c-.184.534-.229,1.186-.727,1.541.028.433.053.865.107,1.3-.087.232-.175.463-.254.7-.043.749-.454,1.421-.458,2.18.987-.417,1.949-.895,2.939-1.311a3.514,3.514,0,0,1-1.092-.488,23.837,23.837,0,0,1,2.1-1.367c.536.194,1.068.4,1.585.642,5.331-2.5,10.713-4.881,16.04-7.381a2.756,2.756,0,0,1,.568-1.078c.064.194.186.579.247.774.225-.4.406-.867.9-1.009.035.126.1.378.14.5,6.763-3.157,13.563-6.241,20.345-9.362-.143-.332-.274-.665-.4-1l-.325.25.048-.133.055-.137c.04-.558-.683-.223-1.024-.313-.259-.183-.512-.365-.763-.547.43,0,.98.31,1.254-.18-.04-.4-.217-.815.046-1.179.255.694.525,1.382.843,2.051.019.435.405.7.645,1.017q41.682-19.185,83.377-38.328c-.238-.32-.449-.652-.679-.976a2.346,2.346,0,0,1-.8.05l.708-.253-.571-.906.07-.066c.761.509.9,1.428,1.362,2.156,4.1-1.92,8.221-3.783,12.334-5.676a1.64,1.64,0,0,0,.818-.7l.491.1c.4-.186.8-.37,1.2-.56-.078-.271-.154-.544-.225-.817.107-.088.322-.267.428-.357a2.43,2.43,0,0,1,.044-2.414,9.153,9.153,0,0,0,1-3.049c.2-.533-.1-1.051-.2-1.567a3.64,3.64,0,0,1,.175-2.161c.131-.373.73-.633.951-.184a3.363,3.363,0,0,0,.314,1.668c-.166,1.615-.245,3.249-.249,4.877a6.145,6.145,0,0,0-.411.615q.268.4.561.789c-.2.5-.367,1-.531,1.511-.268.191-.529.38-.782.578,1.524-.651,3.019-1.376,4.534-2.052a6.6,6.6,0,0,0,4.06-5.885c-.133.069-.405.207-.54.277a1.538,1.538,0,0,1,.445-1.283,9.526,9.526,0,0,0-.5-1.636c-2.58-5.628-5.175-11.245-7.743-16.878.021-.352-.413-.612-.647-.339l-.11.04c-.259-.212.242-.411.371-.55q-4-8.63-7.945-17.285a6.5,6.5,0,0,0-8.422-3.771c-.019.1-.063.29-.082.387-.266-.146-.449-.083-.552.2a1.292,1.292,0,0,0-.772.112q-2.331,1.066-4.653,2.145c-.006.494,0,.987-.044,1.478-.2-.4-.384-.8-.569-1.207q-20.013,9.214-40.036,18.4c-.017.166-.053.494-.068.66-.061-.132-.185-.4-.247-.529-2.31,1.066-4.621,2.135-6.94,3.182-.265.5-.5,1-.782,1.489-.011-.369.008-.74.006-1.111-11.881,5.425-23.737,10.908-35.614,16.337.148.841.974,1.05,1.619,1.408-1.461.079-3.071.087-4.269,1.045m0,0c-.27-.091-.538-.181-.8-.281l-.424-.387c-2.39,1.168-4.9,2.105-7.2,3.44a18,18,0,0,0-2.871,1.189q-52.414,24.066-104.828,48.137c-.641.22-.831.927-1.154,1.45-.094-.187-.278-.56-.371-.745q-9.087,4.161-18.169,8.338a.723.723,0,0,1-.239.96c.009-.3.024-.59.047-.883-1.684.815-3.408,1.542-5.091,2.357a6.437,6.437,0,0,0-3.42,6.4c.212,1.8,1.3,3.32,1.951,4.974,4.915,10.749,9.872,21.479,14.788,32.225a6.358,6.358,0,0,0,3.505,3.406c.795.289,1.77.684,2.484,0,0,.128.006.385.008.513a8.6,8.6,0,0,0,2.486-.622c9.076-4.183,18.173-8.329,27.245-12.521-.248-.339-.38-.816-.839-.915-.443-.177-.472-.758-.711-1.116.084-.052.259-.158.342-.212-.206-.262-.412-.527-.6-.8,1.306.408,1.277,2.042,2.163,2.9,3.459-1.589,6.9-3.207,10.384-4.748a3.988,3.988,0,0,1-1.6-2.083,13.983,13.983,0,0,1-2.253-2.83c-.4-.441-.8-.874-1.236-1.273a28.092,28.092,0,0,1-2.082-3.645c-.653.29-.767-.623-1.093-.961.187-.19.38-.378.57-.567.415.729.556,1.717,1.386,2.107,0,.146-.01.433-.014.578.179-.067.537-.2.716-.264a13.244,13.244,0,0,1,1.363,2.174,16.161,16.161,0,0,0-.663-1.81q-3.44-7.475-6.866-14.951c-.222-.069-.444-.134-.661-.2-.379-.4-.8-.766-1.168-1.175.42.029.842.089,1.261.15" transform="translate(-828.434 -597.807)" fill="#acabab"/>
      <path id="Path_3881" data-name="Path 3881" d="M5215.61,1402.038l.032-.027c-.27-.495-.5-1.006-.746-1.508-.618.707.2,1.191.714,1.535" transform="translate(-4932.226 -1324.646)" fill="#acabab"/>
      <path id="Path_3882" data-name="Path 3882" d="M2918.655,2437.112c-.4-.029-.467-.2-.2-.516q.577.049.2.516m-1.274,1.625c-.149.208-.176.514-.4.659-.438-.381.1-.916.269-1.3.336.08.673.159,1.017.233q.015-.356.054-.712c.275.285.558.561.833.851a8.113,8.113,0,0,0-1.774.274m-15.161,4.935c-.1-.167-.295-.5-.393-.67.342.05.689.092,1.035.14-.216.177-.431.353-.642.53Zm-4.713,1.5-.472.255c-.028-.117-.085-.349-.116-.464.093-.085.279-.25.373-.332C2897.343,2444.763,2897.453,2445.032,2897.507,2445.167Zm-2.51,3.158a6.079,6.079,0,0,1-.5-.612.486.486,0,0,1,.8-.441C2895.215,2447.63,2895.111,2447.981,2895,2448.326Zm-2.36,1.127c-.782-.044-1.359.586-2.011.921-.122-.04-.366-.116-.49-.153a4.183,4.183,0,0,1-2.577.792c.006-.513.478-.685.881-.871a10.419,10.419,0,0,0,2.24-.392c.4-.071.428-.575.664-.84a2.482,2.482,0,0,1,1.1.29,4.492,4.492,0,0,1,1.771-.826,2.2,2.2,0,0,1-1.581,1.08Zm-6.719,2.042c-.508-.048-.925.317-1.41.368a9.148,9.148,0,0,1-1.418-.508,11.891,11.891,0,0,1,2.76-.235,5.582,5.582,0,0,1,1.209-.506A1.023,1.023,0,0,1,2885.917,2451.495Zm-.684,1.622c-.294.285-.466.232-.509-.159.292-.289.46-.237.509.159m-6.312,2.939c-.29.126-.557-.37-.251-.51s.579.372.251.51m44.589-21.076c-.109.028-.325.077-.434.1.373-.846-.386-1.5-.806-2.151-2.68,1.226-5.376,2.428-8.034,3.713.248.621-.463.166-.733.322-3.542,1.582-7.053,3.241-10.589,4.842q-.03.509-.068,1.018c-.264-.2-.605-.378-.549-.767-.492.257-.994.492-1.494.727-.06-.109-.185-.325-.246-.434.054.112.164.331.216.441-1.185.5-2.309,1.141-3.494,1.641-2.6,1.064-5.079,2.412-7.684,3.467.207.195.42.394.638.591l-.169.141c-.221-.212-.438-.417-.67-.608l.039.636-.475-.446c-3.636,1.686-7.283,3.345-10.927,5.023-.6.2-.726.9-1.068,1.357.129.042.383.122.508.163-.442.231-.961.627-1.251-.01a6.012,6.012,0,0,1-.011,1.394l.395-.4c.01.446.018.892.015,1.341-.506.369-1.182.716-.737,1.455.878-.38,1.741-.792,2.618-1.179,0-.156.009-.464.012-.621.053.131.154.395.207.525,3.641-1.687,7.279-3.379,10.944-5.015-.232-.139-.456-.282-.678-.428.445-.321.846-.027,1.24.214l-.149-.466c.085.072.259.214.345.285,1.8-.794,3.6-1.6,5.362-2.47a3.9,3.9,0,0,1,.8-1.547c-.127-.327-.2-.659.206-.8-.276-.362.056-.677.206-.994a2.151,2.151,0,0,1,1.272-.209c.234.311.459.634.692.954.359-.175.817.041.679.487a7.38,7.38,0,0,1-1.247.456l-.4-.7c.162-.082.486-.249.648-.334-.468.048-1.057-.083-1.319.469a1.438,1.438,0,0,0,.154-1.048,5.869,5.869,0,0,0-.63.525l.166.247a1.574,1.574,0,0,0,0,1.342c-.087.221-.166.447-.245.669,1.592-.663,3.154-1.395,4.722-2.114-.246-.115-.487-.232-.726-.352.685-.547,1.49.148,2.18-.314,5.583-2.6,11.217-5.093,16.763-7.757l-.126-.325c.039-.049.121-.148.162-.2.04.128.125.383.165.511,1.549-.769,3.145-1.444,4.705-2.194-.4-.364-.947-.62-1.107-1.181" transform="translate(-2719.974 -2301.156)" fill="#acabab"/>
      <path id="Path_3883" data-name="Path 3883" d="M3836.552,1615.334c-.219.087-.431.177-.639.27-.1-.32-.2-.633-.291-.955.207-.033.42-.069.635-.1.093.263.19.526.295.788m-8.041,3.912c-.16.378-.786.134-.618-.256.106-.447.764-.108.618.256m-7.135,2.986c-.263.243-.405.195-.432-.148.252-.247.4-.2.432.148m-25.049,12.16c-.235-.266-.552-.509-.547-.9.291-.151.5.191.742.309-.068.194-.133.391-.2.588m-.769-.285c-.271.233-.414.179-.427-.16.26-.238.4-.186.427.16m-2.277,2.012c-.335-.013-.39-.159-.158-.436q.5.015.158.436m-20.72,8.5c.339-1.035,1.532-1.28,2.393-1.725-.359.974-1.581,1.236-2.393,1.725m-.331.266c-.26.223-.412.166-.46-.166.25-.231.405-.176.46.166m-13.119,6.061c-.278-.17-.1-.611.138-.733.547-.122.306.85-.138.733m84.387-42.008a1.6,1.6,0,0,0,.362.845c-.036.081-.108.246-.144.329-.171-.338-.34-.676-.519-1.005-.745.306-1.472.648-2.2.978-.609.3-1.345.479-1.656,1.147-.168-.053-.329-.1-.486-.157-.9.414-1.8.828-2.7,1.236l.313.7c-.346.274-1.191.145-.824-.428a10.919,10.919,0,0,0-2.743,1.386c-.112.426-.531.255-.832.188-.052.107-.156.318-.208.425-.1-.022-.3-.065-.407-.085-1.189.49-2.343,1.054-3.5,1.606a1.311,1.311,0,0,1-.191,1.044c.309.29.249.727.306,1.111l-.166.095c-.2-.192-.39-.384-.587-.576l.589-.232-.8-.179c.254-.365.507-.729.768-1.091a9.9,9.9,0,0,0-2.395.986c-1.294.521-2.542,1.141-3.811,1.711.1.319.416.895-.17.919a.63.63,0,0,1-.635-.575c-3.5,1.691-7.083,3.224-10.589,4.911-.362.116-.288.514-.338.808-.039-.153-.116-.459-.153-.613q-7.577,3.5-15.172,6.963c.017.277.039.555.042.833-.07-.182-.211-.547-.281-.729-12.418,5.757-24.884,11.411-37.3,17.165.381.216.788.427.922.888-.32.439,0,.667.394.837a9.218,9.218,0,0,1,.2,1.122c.213.15.427.3.642.461q18.118-8.3,36.227-16.634l-.551-.2c.158-.127.322-.254.49-.38.037.143.111.424.147.565,5.589-2.6,11.2-5.16,16.8-7.732,5.09-2.291,10.115-4.739,15.245-6.932a1.421,1.421,0,0,1-.583-.764l.515-.092.373-.345c-.127.193-.383.576-.508.769a1.742,1.742,0,0,0,1.171-.083q2.41-1.1,4.819-2.218c-.119-.263-.239-.521-.359-.779l.065-.083.107.338c.114-.088.337-.266.445-.355.081.152.239.454.322.605a18.508,18.508,0,0,0,2.465-1.2c.022-.228.041-.459.053-.689.061.162.186.483.247.644,4.725-2.24,9.508-4.366,14.257-6.563a6.152,6.152,0,0,0,2.338-1.391c-.048-.149-.145-.448-.2-.6.5-1.119.291-2.355.458-3.533-3.352,1.557-6.713,3.088-10.074,4.623" transform="translate(-3553.566 -1517.418)" fill="#acabab"/>
      <path id="Path_3884" data-name="Path 3884" d="M1751.026,2550.915l14.891-6.356,10.837,17.3,1.19,3.805-12.027,5.987-3.022.215Z" transform="translate(-1656.183 -2406.735)" fill="#acabab"/>
      <path id="Path_3885" data-name="Path 3885" d="M2463.484,1965.694l15.252,33.162,14.24-6.5-15.247-33.2Z" transform="translate(-2330.052 -1853.037)" fill="#acabab"/>
    </g>
  </g>
</svg>
