<svg xmlns="http://www.w3.org/2000/svg" width="27.891" height="28.515" viewBox="0 0 27.891 28.515">
  <g id="budget" transform="translate(0 0)">
    <path id="Path_114" data-name="Path 114" d="M316.145,253h-8.8a.341.341,0,0,0-.341.341v1.988a.341.341,0,0,0,.341.341h8.8a.341.341,0,0,0,.341-.341v-1.988A.341.341,0,0,0,316.145,253Zm-.4,1.988h-8.066v-1.306h8.066Z" transform="translate(-290.129 -238.913)" fill="#0b3058"/>
    <path id="Path_115" data-name="Path 115" d="M310.921,437.115a1.364,1.364,0,1,0-1.364-1.364A1.364,1.364,0,0,0,310.921,437.115Zm0-2.046a.682.682,0,1,1-.682.682.682.682,0,0,1,.682-.682Z" transform="translate(-292.541 -409.997)" fill="#0b3058"/>
    <path id="Path_116" data-name="Path 116" d="M367.871,437.115a1.364,1.364,0,1,0-1.364-1.364A1.364,1.364,0,0,0,367.871,437.115Zm0-2.046a.682.682,0,1,1-.682.682.682.682,0,0,1,.682-.682Z" transform="translate(-346.256 -409.997)" fill="#0b3058"/>
    <path id="Path_117" data-name="Path 117" d="M424.822,437.115a1.364,1.364,0,1,0-1.364-1.364A1.364,1.364,0,0,0,424.822,437.115Zm0-2.046a.682.682,0,1,1-.682.682.682.682,0,0,1,.682-.682Z" transform="translate(-399.972 -409.997)" fill="#0b3058"/>
    <path id="Path_118" data-name="Path 118" d="M310.921,384.14a1.364,1.364,0,1,0-1.364-1.364A1.364,1.364,0,0,0,310.921,384.14Zm0-2.046a.682.682,0,1,1-.682.682A.682.682,0,0,1,310.921,382.095Z" transform="translate(-292.541 -360.031)" fill="#0b3058"/>
    <path id="Path_119" data-name="Path 119" d="M367.871,384.14a1.364,1.364,0,1,0-1.364-1.364A1.364,1.364,0,0,0,367.871,384.14Zm0-2.046a.682.682,0,1,1-.682.682A.682.682,0,0,1,367.871,382.095Z" transform="translate(-346.256 -360.031)" fill="#0b3058"/>
    <path id="Path_120" data-name="Path 120" d="M424.822,384.14a1.364,1.364,0,1,0-1.364-1.364A1.364,1.364,0,0,0,424.822,384.14Zm0-2.046a.682.682,0,1,1-.682.682A.682.682,0,0,1,424.822,382.095Z" transform="translate(-399.972 -360.031)" fill="#0b3058"/>
    <path id="Path_121" data-name="Path 121" d="M310.921,331.168a1.364,1.364,0,1,0-1.364-1.364A1.364,1.364,0,0,0,310.921,331.168Zm0-2.046a.682.682,0,1,1-.682.682A.682.682,0,0,1,310.921,329.123Z" transform="translate(-292.541 -310.068)" fill="#0b3058"/>
    <path id="Path_122" data-name="Path 122" d="M367.871,331.168a1.364,1.364,0,1,0-1.364-1.364A1.364,1.364,0,0,0,367.871,331.168Zm0-2.046a.682.682,0,1,1-.682.682A.682.682,0,0,1,367.871,329.123Z" transform="translate(-346.256 -310.068)" fill="#0b3058"/>
    <path id="Path_123" data-name="Path 123" d="M424.822,331.168a1.364,1.364,0,1,0-1.364-1.364A1.364,1.364,0,0,0,424.822,331.168Zm0-2.046a.682.682,0,1,1-.682.682A.682.682,0,0,1,424.822,329.123Z" transform="translate(-399.972 -310.068)" fill="#0b3058"/>
    <path id="Path_124" data-name="Path 124" d="M157.442,309h-3.55a.341.341,0,1,0,0,.682h3.55a.341.341,0,1,0,0-.682Z" transform="translate(-145.397 -291.732)" fill="#0b3058"/>
    <path id="Path_125" data-name="Path 125" d="M125.326,309.682h.346a.341.341,0,0,0,0-.682h-.346a.341.341,0,1,0,0,.682Z" transform="translate(-118.453 -291.732)" fill="#0b3058"/>
    <path id="Path_126" data-name="Path 126" d="M176.7,360h-1.854a.341.341,0,0,0,0,.682H176.7a.341.341,0,0,0,0-.682Z" transform="translate(-165.163 -339.835)" fill="#0b3058"/>
    <path id="Path_127" data-name="Path 127" d="M126.807,360h-1.481a.341.341,0,1,0,0,.682h1.481a.341.341,0,0,0,0-.682Z" transform="translate(-118.453 -339.835)" fill="#0b3058"/>
    <path id="Path_128" data-name="Path 128" d="M101.341,46.806a.341.341,0,0,0-.341.341v.137a.341.341,0,0,0,.682,0v-.137A.341.341,0,0,0,101.341,46.806Z" transform="translate(-95.831 -44.431)" fill="#0b3058"/>
    <path id="Path_129" data-name="Path 129" d="M101.341,72.649a.341.341,0,0,0-.341.341V77.5a.341.341,0,0,0,.682,0V72.99A.341.341,0,0,0,101.341,72.649Z" transform="translate(-95.831 -68.806)" fill="#0b3058"/>
    <path id="Path_130" data-name="Path 130" d="M147.093,64.854a5.029,5.029,0,1,0,5.029,5.029A5.029,5.029,0,0,0,147.093,64.854Zm4.34,4.78h-3.608l2.572-2.572A4.327,4.327,0,0,1,151.433,69.634Zm-4.34-4.1a4.327,4.327,0,0,1,2.822,1.044l-2.82,2.82-2.219-3.253A4.32,4.32,0,0,1,147.093,65.536Zm0,8.695a4.345,4.345,0,0,1-2.774-7.692l2.474,3.628a.341.341,0,0,0,.282.149h4.345A4.353,4.353,0,0,1,147.093,74.231Z" transform="translate(-134.562 -61.454)" fill="#0b3058"/>
    <path id="Path_131" data-name="Path 131" d="M36.164,17.667H31.585V10.325a.948.948,0,0,0-.268-.667L27.056,5.288A.955.955,0,0,0,26.375,5H14.454a.938.938,0,0,0-.932.955v.92h-.907a.952.952,0,0,0-.682.268.927.927,0,0,0-.286.662v.547H10.96a.944.944,0,0,0-.678.269A.926.926,0,0,0,10,9.283V31.924a.97.97,0,0,0,.961.966H25.62a1.723,1.723,0,0,0,1.329.625h9.215a1.726,1.726,0,0,0,1.726-1.726v-12.4a1.726,1.726,0,0,0-1.726-1.726ZM26.871,6.074l3.584,3.7H28.6a1.726,1.726,0,0,1-1.22-.519,1.746,1.746,0,0,1-.5-1.234ZM12.329,7.8a.25.25,0,0,1,.087-.18.277.277,0,0,1,.2-.067h.906v21.1a.923.923,0,0,0,.933.939H25.223v1.079H12.616a.3.3,0,0,1-.287-.292ZM10.961,32.209a.285.285,0,0,1-.2-.086.288.288,0,0,1-.083-.2V9.283a.249.249,0,0,1,.083-.181.269.269,0,0,1,.2-.069h.687v21.35a.984.984,0,0,0,.968.974H25.223v.432a1.728,1.728,0,0,0,.052.42ZM25.223,19.393v3.031a.34.34,0,0,0-.286-.156H23.662a.341.341,0,0,0,0,.682h1.275a.34.34,0,0,0,.286-.156v2.372H22.85a.341.341,0,0,0,0,.682h2.373v3.067H14.455a.24.24,0,0,1-.182-.072.244.244,0,0,1-.069-.185V5.954a.256.256,0,0,1,.251-.273H26.189V8.018A2.43,2.43,0,0,0,28.6,10.453H30.9v7.214H26.95a1.726,1.726,0,0,0-1.726,1.726Zm12.042,12.4a1.052,1.052,0,0,1-1.051,1.045H26.977A1.07,1.07,0,0,1,25.9,31.789V22.95H37.266Zm0-9.521H25.9V19.395a1.071,1.071,0,0,1,1.072-1.046h9.237a1.053,1.053,0,0,1,1.051,1.046Z" transform="translate(-10 -5)" fill="#0b3058"/>
  </g>
</svg>
