<svg id="charity" xmlns="http://www.w3.org/2000/svg" width="34.5" height="34.5" viewBox="0 0 34.5 34.5">
  <g id="Group_174" data-name="Group 174">
    <path id="Path_107" data-name="Path 107" d="M152.326,416.7l-2.627,2.624a4.781,4.781,0,0,1-3.4,1.408h-7.14a.674.674,0,0,0-.476.2l-.859.859a.674.674,0,1,0,.953.953l.661-.661H146.3a6.12,6.12,0,0,0,4.354-1.8l2.627-2.624a.674.674,0,0,0-.952-.953Z" transform="translate(-128.353 -388.437)" fill="#0b3058"/>
    <path id="Path_108" data-name="Path 108" d="M74.041,7.8,66.438.2a.674.674,0,0,0-.953,0L62.453,3.23a.674.674,0,0,0,0,.953l.293.293-.361.361H55.525a6.12,6.12,0,0,0-4.354,1.8l-7.8,7.793a2.6,2.6,0,0,0,3.678,3.676l2.388-2.388A10.629,10.629,0,0,1,51.522,14.1,6.064,6.064,0,1,0,63.3,16.138q0-.265-.023-.529a6.657,6.657,0,0,0,4.351-1.964c.644-.647,1.4-1.4,2.14-2.149l.289.289a.674.674,0,0,0,.953,0l3.032-3.032a.674.674,0,0,0,0-.953ZM57.233,20.855a4.716,4.716,0,0,1-3.894-7.377,2.628,2.628,0,0,0,1.238.591,3.368,3.368,0,1,0,5.869,1.056,6.154,6.154,0,0,0,1.465.421,4.78,4.78,0,0,1,.038.592,4.722,4.722,0,0,1-4.717,4.717Zm0-6.738a2.021,2.021,0,1,1-2.021,2.021A2.024,2.024,0,0,1,57.233,14.117Zm9.437-1.422a5.326,5.326,0,0,1-3.8,1.579,4.8,4.8,0,0,1-2.451-.673,5.946,5.946,0,0,0-3.033-.835H55.062a1.3,1.3,0,0,1-.926-.384,1.318,1.318,0,0,1-.385-.937,1.3,1.3,0,0,1,1.3-1.3h4.424a.674.674,0,0,0,0-1.348H55.053a2.65,2.65,0,0,0-2.65,2.65,2.7,2.7,0,0,0,.087.681,12.028,12.028,0,0,0-4.008,2.642l-2.388,2.388a1.255,1.255,0,0,1-1.773-.007,1.246,1.246,0,0,1,0-1.763l7.8-7.793a4.781,4.781,0,0,1,3.4-1.408h7.14a.674.674,0,0,0,.476-.2l.559-.558,5.114,5.114c-.744.746-1.5,1.5-2.143,2.151Zm3.861-2.339L63.882,3.706l2.08-2.08,6.649,6.649Z" transform="translate(-39.738 0)" fill="#0b3058"/>
    <path id="Path_109" data-name="Path 109" d="M28.26,291.03a2.583,2.583,0,0,0-1.838.76l-2.388,2.388a10.667,10.667,0,0,1-3.724,2.411,2.711,2.711,0,0,0-1.9-.8H16.088a4.6,4.6,0,0,1-2.345-.646,6.152,6.152,0,0,0-3.139-.862,6.665,6.665,0,0,0-4.76,1.977C3.682,298.428.231,301.879.2,301.913a.674.674,0,1,0,.953.953c.035-.035,3.486-3.486,5.65-5.662a5.326,5.326,0,0,1,3.8-1.579,4.8,4.8,0,0,1,2.451.673,5.945,5.945,0,0,0,3.033.835h2.319a1.3,1.3,0,0,1,.927.384,1.318,1.318,0,0,1,.385.937,1.3,1.3,0,0,1-1.3,1.3H13.992a.674.674,0,0,0,0,1.348h4.424a2.65,2.65,0,0,0,2.65-2.65,2.782,2.782,0,0,0-.083-.683,12.027,12.027,0,0,0,4-2.641l2.388-2.388a1.237,1.237,0,0,1,.881-.365h0a1.255,1.255,0,0,1,.89.372,1.246,1.246,0,0,1,0,1.763l-.884.884a.674.674,0,0,0,.952.953l.884-.884a2.6,2.6,0,0,0-1.84-4.436Z" transform="translate(0.001 -271.419)" fill="#0b3058"/>
    <circle id="Ellipse_4" data-name="Ellipse 4" cx="0.674" cy="0.674" r="0.674" transform="translate(25.921 25.921)" fill="#0b3058"/>
  </g>
</svg>
