<svg id="checked" xmlns="http://www.w3.org/2000/svg" width="46.459" height="46.458" viewBox="0 0 46.459 46.458">
  <g id="Group_2090" data-name="Group 2090" transform="translate(11.031 5.837)">
    <g id="Group_2089" data-name="Group 2089">
      <path id="Path_3838" data-name="Path 3838" d="M155.667,64.842a1.751,1.751,0,0,0-2.476,0l-21.006,20.95-7.579-8.231a1.751,1.751,0,1,0-2.576,2.372l8.813,9.571a1.749,1.749,0,0,0,1.251.564h.037a1.753,1.753,0,0,0,1.236-.511l22.3-22.237A1.751,1.751,0,0,0,155.667,64.842Z" transform="translate(-121.568 -64.327)" fill="#fff"/>
    </g>
  </g>
  <g id="Group_2092" data-name="Group 2092">
    <g id="Group_2091" data-name="Group 2091">
      <path id="Path_3839" data-name="Path 3839" d="M44.708,21.478a1.751,1.751,0,0,0-1.751,1.751A19.727,19.727,0,1,1,23.229,3.5a1.751,1.751,0,1,0,0-3.5A23.229,23.229,0,1,0,46.459,23.229,1.751,1.751,0,0,0,44.708,21.478Z" fill="#fff"/>
    </g>
  </g>
</svg>
