<svg id="close" xmlns="http://www.w3.org/2000/svg" width="6.608" height="6.607" viewBox="0 0 6.608 6.607">
  <path id="Path_3834" data-name="Path 3834" d="M.317,6.6a.323.323,0,0,1-.228-.551L6.051.091a.323.323,0,0,1,.456.456L.545,6.51A.322.322,0,0,1,.317,6.6Z" transform="translate(0.006 0.003)" fill="#fff"/>
  <path id="Path_3835" data-name="Path 3835" d="M6.282,6.6a.322.322,0,0,1-.228-.094L.091.548A.323.323,0,1,1,.548.091L6.51,6.053a.323.323,0,0,1-.228.551Z" transform="translate(0.003 0.003)" fill="#fff"/>
</svg>
