<svg xmlns="http://www.w3.org/2000/svg" width="35.302" height="31.623" viewBox="0 0 35.302 31.623">
  <g id="data-transfer" transform="translate(0 0)">
    <path id="Path_100" data-name="Path 100" d="M39.757,20.475c-5.518-5.689-4.5-4.984-5.2-5.229H23.822l-4.079-4.285a.545.545,0,0,0-.377-.161H6.616A2.009,2.009,0,0,0,4.61,12.806V35.97a2.009,2.009,0,0,0,2.006,2.006H19.8v2.44a2.009,2.009,0,0,0,2.006,2.006h16.1a2.009,2.009,0,0,0,2.006-2.006V20.846A.545.545,0,0,0,39.757,20.475Zm-4.68-3.407,3.1,3.257h-3.1ZM26.654,29.61H20.84V28.059h5.813a.52.52,0,0,0,.52-.52V25.893l3.8,2.938-3.8,2.94V30.13A.52.52,0,0,0,26.654,29.61Zm-8.785-6h5.812v1.554H17.869a.52.52,0,0,0-.52.52v1.642l-3.8-2.941,3.8-2.938v1.643a.52.52,0,0,0,.52.52Zm5.118-7.732h-3.1V12.621ZM5.65,35.97V12.806a.967.967,0,0,1,.966-.966h12.23V16.4a.52.52,0,0,0,.52.52h4.315v5.651H18.389V20.389a.524.524,0,0,0-.838-.411l-5.174,4a.523.523,0,0,0,0,.823l5.174,4a.517.517,0,0,0,.318.109.523.523,0,0,0,.52-.52V26.206h5.292v.813H20.32a.52.52,0,0,0-.52.52V30.13a.52.52,0,0,0,.52.52h3.361v5.32a.967.967,0,0,1-.966.966H6.616a.967.967,0,0,1-.966-.966Zm33.222,4.446a.967.967,0,0,1-.966.966h-16.1a.967.967,0,0,1-.966-.966v-2.44h1.875a2.009,2.009,0,0,0,2.006-2.006V30.65h1.412v2.181a.52.52,0,0,0,.291.467.539.539,0,0,0,.547-.056l5.174-4a.524.524,0,0,0,0-.823l-5.174-4a.52.52,0,0,0-.838.412v2.184H24.722c0-.847,0-3.055,0-3.928,0-.009,0-6.681,0-6.692a1.02,1.02,0,0,0-.012-.113h9.326v4.559a.52.52,0,0,0,.521.52h4.315Z" transform="translate(-4.61 -10.8)" fill="#0b3058"/>
    <path id="Path_101" data-name="Path 101" d="M92.607,56.794a.52.52,0,0,0,.52.52h4.879a.52.52,0,0,0,0-1.04H93.127A.52.52,0,0,0,92.607,56.794Z" transform="translate(-66.454 -42.759)" fill="#0b3058"/>
    <path id="Path_102" data-name="Path 102" d="M103.774,69.729h-2.439a.52.52,0,1,0,0,1.04h2.439a.52.52,0,1,0,0-1.04Z" transform="translate(-72.222 -52.215)" fill="#0b3058"/>
    <path id="Path_103" data-name="Path 103" d="M98.006,83.185H93.127a.52.52,0,0,0,0,1.04h4.879a.52.52,0,1,0,0-1.04Z" transform="translate(-66.454 -61.672)" fill="#0b3058"/>
    <path id="Path_104" data-name="Path 104" d="M16,42.355h4.879a.52.52,0,0,0,0-1.04H16a.52.52,0,0,0,0,1.04Z" transform="translate(-12.247 -32.246)" fill="#0b3058"/>
    <path id="Path_105" data-name="Path 105" d="M16,55.81h2.439a.52.52,0,1,0,0-1.04H16a.52.52,0,1,0,0,1.04Z" transform="translate(-12.247 -41.702)" fill="#0b3058"/>
    <path id="Path_106" data-name="Path 106" d="M20.876,68.226H16a.52.52,0,0,0,0,1.04h4.879a.52.52,0,0,0,0-1.04Z" transform="translate(-12.247 -51.159)" fill="#0b3058"/>
  </g>
</svg>
