<svg id="delete" xmlns="http://www.w3.org/2000/svg" width="20.447" height="25.175" viewBox="0 0 20.447 25.175">
  <path id="Path_3833" data-name="Path 3833" d="M222.988,154.7a.59.59,0,0,0-.59.59v11.143a.59.59,0,0,0,1.179,0V155.293A.59.59,0,0,0,222.988,154.7Zm0,0" transform="translate(-209.286 -145.582)"/>
  <path id="Path_3834" data-name="Path 3834" d="M104.988,154.7a.59.59,0,0,0-.59.59v11.143a.59.59,0,0,0,1.179,0V155.293A.59.59,0,0,0,104.988,154.7Zm0,0" transform="translate(-98.243 -145.582)"/>
  <path id="Path_3835" data-name="Path 3835" d="M1.671,7.493V22.019a3.253,3.253,0,0,0,.865,2.243,2.9,2.9,0,0,0,2.107.911H15.8a2.9,2.9,0,0,0,2.107-.911,3.253,3.253,0,0,0,.865-2.243V7.493a2.252,2.252,0,0,0-.578-4.429H15.172V2.328A2.316,2.316,0,0,0,12.838,0H7.6A2.316,2.316,0,0,0,5.268,2.328v.737H2.249a2.252,2.252,0,0,0-.578,4.429ZM15.8,23.994H4.643A1.867,1.867,0,0,1,2.85,22.019V7.545H17.59V22.019A1.867,1.867,0,0,1,15.8,23.994ZM6.447,2.328A1.136,1.136,0,0,1,7.6,1.178h5.235a1.136,1.136,0,0,1,1.156,1.15v.737H6.447Zm-4.2,1.916H18.191a1.061,1.061,0,0,1,0,2.122H2.249a1.061,1.061,0,1,1,0-2.122Zm0,0" transform="translate(0.003 0.001)"/>
  <path id="Path_3836" data-name="Path 3836" d="M163.988,154.7a.59.59,0,0,0-.59.59v11.143a.59.59,0,0,0,1.179,0V155.293A.59.59,0,0,0,163.988,154.7Zm0,0" transform="translate(-153.765 -145.582)"/>
</svg>
