<svg id="drag" xmlns="http://www.w3.org/2000/svg" width="30.064" height="30.064" viewBox="0 0 30.064 30.064">
  <g id="Group_2160" data-name="Group 2160" transform="translate(11.274 11.274)">
    <g id="Group_2159" data-name="Group 2159">
      <path id="Path_3886" data-name="Path 3886" d="M207.658,192h-6.263a.626.626,0,1,0,0,1.253h6.263a1.881,1.881,0,0,1,1.879,1.879v12.526a1.881,1.881,0,0,1-1.879,1.879H195.132a1.881,1.881,0,0,1-1.879-1.879v-5.011a.626.626,0,0,0-1.253,0v5.011a3.136,3.136,0,0,0,3.132,3.132h12.526a3.136,3.136,0,0,0,3.132-3.132V195.132A3.136,3.136,0,0,0,207.658,192Z" transform="translate(-192 -192)"/>
    </g>
  </g>
  <g id="Group_2162" data-name="Group 2162" transform="translate(8.142 17.537)">
    <g id="Group_2161" data-name="Group 2161">
      <path id="Path_3887" data-name="Path 3887" d="M139.919,298.667h-.626a.626.626,0,1,0,0,1.253h.626a.626.626,0,1,0,0-1.253Z" transform="translate(-138.666 -298.667)"/>
    </g>
  </g>
  <g id="Group_2165" data-name="Group 2165">
    <g id="Group_2164" data-name="Group 2164">
      <g id="Group_2163" data-name="Group 2163">
        <path id="Path_3888" data-name="Path 3888" d="M32.56,0h-.552a3.148,3.148,0,0,0-.879.125A.626.626,0,0,0,31.3,1.353a.613.613,0,0,0,.177-.025,1.864,1.864,0,0,1,.527-.075h.552A.626.626,0,1,0,32.56,0Z" transform="translate(-28.876)"/>
        <path id="Path_3889" data-name="Path 3889" d="M1.253,226.874v-1.266a.626.626,0,1,0-1.253,0v1.266a.626.626,0,1,0,1.253,0Z" transform="translate(0 -211.771)"/>
        <path id="Path_3890" data-name="Path 3890" d="M.626,162.8a.627.627,0,0,0,.626-.626V160.9A.626.626,0,0,0,0,160.9v1.266A.627.627,0,0,0,.626,162.8Z" transform="translate(0 -150.866)"/>
        <path id="Path_3891" data-name="Path 3891" d="M.626,33.54a.627.627,0,0,0,.626-.626v-.575a1.89,1.89,0,0,1,.07-.511.626.626,0,1,0-1.205-.341A3.155,3.155,0,0,0,0,32.339v.575A.627.627,0,0,0,.626,33.54Z" transform="translate(0 -29.207)"/>
        <path id="Path_3892" data-name="Path 3892" d="M.626,98.113a.627.627,0,0,0,.626-.626V96.22A.626.626,0,1,0,0,96.22v1.266A.627.627,0,0,0,.626,98.113Z" transform="translate(0 -89.981)"/>
        <path id="Path_3893" data-name="Path 3893" d="M14.493,286.924a1.885,1.885,0,0,1-.809-.475.626.626,0,0,0-.883.888,3.128,3.128,0,0,0,1.35.792.626.626,0,0,0,.342-1.205Z" transform="translate(-11.875 -269.458)"/>
        <path id="Path_3894" data-name="Path 3894" d="M287.277,14.645a.573.573,0,0,0,.175-.026.626.626,0,0,0,.426-.777,3.134,3.134,0,0,0-.8-1.344.626.626,0,1,0-.881.891,1.893,1.893,0,0,1,.481.805A.627.627,0,0,0,287.277,14.645Z" transform="translate(-269.215 -11.593)"/>
        <path id="Path_3895" data-name="Path 3895" d="M226.49,0h-1.266a.626.626,0,0,0,0,1.253h1.266a.626.626,0,1,0,0-1.253Z" transform="translate(-211.409)"/>
        <path id="Path_3896" data-name="Path 3896" d="M75.877,298.667H74.61a.626.626,0,1,0,0,1.253h1.266a.626.626,0,1,0,0-1.253Z" transform="translate(-69.64 -281.13)"/>
        <path id="Path_3897" data-name="Path 3897" d="M299.292,73.6a.627.627,0,0,0-.626.626v1.266a.626.626,0,1,0,1.253,0V74.226A.626.626,0,0,0,299.292,73.6Z" transform="translate(-281.129 -69.278)"/>
        <path id="Path_3898" data-name="Path 3898" d="M161.807,0H160.54a.626.626,0,0,0,0,1.253h1.265a.626.626,0,1,0,0-1.253Z" transform="translate(-150.524)"/>
        <path id="Path_3899" data-name="Path 3899" d="M97.1,0H95.836a.626.626,0,0,0,0,1.253H97.1A.626.626,0,1,0,97.1,0Z" transform="translate(-89.619)"/>
      </g>
    </g>
  </g>
  <g id="Group_2167" data-name="Group 2167" transform="translate(17.537 8.142)">
    <g id="Group_2166" data-name="Group 2166">
      <path id="Path_3900" data-name="Path 3900" d="M299.292,138.667a.627.627,0,0,0-.626.626v.626a.626.626,0,1,0,1.253,0v-.626A.627.627,0,0,0,299.292,138.667Z" transform="translate(-298.666 -138.667)"/>
    </g>
  </g>
  <g id="Group_2169" data-name="Group 2169" transform="translate(8.887 8.38)">
    <g id="Group_2168" data-name="Group 2168">
      <path id="Path_3901" data-name="Path 3901" d="M163.02,145.233l-1.942-1.942a1.954,1.954,0,0,0-3.244.788,1.992,1.992,0,0,0-2.026.465,1.947,1.947,0,0,0-.536,1.012,1.972,1.972,0,0,0-1.656.554,1.951,1.951,0,0,0-.567,1.518,1.956,1.956,0,0,0-1.117,3.321l.561.561v2.246a3.136,3.136,0,0,0,3.132,3.132h2.568a6.827,6.827,0,0,0,4.828-11.655Zm-4.828,10.4h-2.568a1.881,1.881,0,0,1-1.879-1.879v-.993l1.437,1.437a.627.627,0,0,0,.886-.887l-3.251-3.251a.7.7,0,0,1,0-.992.719.719,0,0,1,.993,0l1.372,1.372a.626.626,0,0,0,.886-.886L154.5,147.99a.7.7,0,0,1,0-.993.719.719,0,0,1,.993,0l.939.939a.626.626,0,0,0,.886-.886l-.626-.626a.7.7,0,0,1,0-.993.719.719,0,0,1,.993,0l.626.626a.626.626,0,1,0,.884-.887.7.7,0,0,1,0-.992.7.7,0,0,1,.993,0l1.942,1.942a5.574,5.574,0,0,1-3.942,9.515Z" transform="translate(-151.359 -142.72)"/>
    </g>
  </g>
</svg>
