<svg id="Edit" xmlns="http://www.w3.org/2000/svg" width="22.045" height="21.934" viewBox="0 0 22.045 21.934">
  <path id="Path_3837" data-name="Path 3837" d="M20.346,50.8a.549.549,0,0,0-.549.549v4.875a1.649,1.649,0,0,1-1.647,1.647H2.745A1.649,1.649,0,0,1,1.1,56.224V41.917A1.649,1.649,0,0,1,2.745,40.27H7.62a.549.549,0,1,0,0-1.1H2.745A2.748,2.748,0,0,0,0,41.917V56.224a2.748,2.748,0,0,0,2.745,2.745H18.15A2.748,2.748,0,0,0,20.9,56.224V51.349A.549.549,0,0,0,20.346,50.8Zm0,0" transform="translate(0 -37.036)"/>
  <path id="Path_3838" data-name="Path 3838" d="M122.928.984a2.471,2.471,0,0,0-3.494,0l-9.795,9.795a.549.549,0,0,0-.141.242l-1.288,4.65a.549.549,0,0,0,.676.676l4.65-1.288a.549.549,0,0,0,.242-.141l9.795-9.8a2.473,2.473,0,0,0,0-3.494ZM110.835,11.136l8.016-8.017L121.437,5.7l-8.017,8.017Zm-.516,1.036,2.065,2.066-2.857.792ZM122.8,4.346l-.582.582-2.586-2.586.582-.582a1.372,1.372,0,0,1,1.941,0l.644.644A1.375,1.375,0,0,1,122.8,4.346Zm0,0" transform="translate(-102.25 -0.261)"/>
</svg>
