<svg id="excel" xmlns="http://www.w3.org/2000/svg" width="28.907" height="27.1" viewBox="0 0 28.907 27.1">
  <g id="Group_2125" data-name="Group 2125">
    <g id="Group_2124" data-name="Group 2124">
      <path id="Path_3849" data-name="Path 3849" d="M15.933,16.216a.909.909,0,0,0-.743-.192L.737,18.735A.9.9,0,0,0,0,19.622V39.5a.9.9,0,0,0,.737.887l14.454,2.71a.864.864,0,0,0,.166.016.9.9,0,0,0,.9-.9V16.912A.9.9,0,0,0,15.933,16.216Zm-1.48,24.9L1.807,38.746V20.372L14.454,18Z" transform="translate(0 -16.01)"/>
    </g>
  </g>
  <g id="Group_2127" data-name="Group 2127" transform="translate(14.454 3.612)">
    <g id="Group_2126" data-name="Group 2126">
      <path id="Path_3850" data-name="Path 3850" d="M269.55,79.99H256.9a.9.9,0,0,0,0,1.807h11.744v16.26H256.9a.9.9,0,0,0,0,1.807H269.55a.9.9,0,0,0,.9-.9V80.893A.9.9,0,0,0,269.55,79.99Z" transform="translate(-256 -79.99)"/>
    </g>
  </g>
  <g id="Group_2129" data-name="Group 2129" transform="translate(14.454 7.226)">
    <g id="Group_2128" data-name="Group 2128">
      <path id="Path_3851" data-name="Path 3851" d="M260.517,143.99H256.9a.9.9,0,0,0,0,1.807h3.613a.9.9,0,1,0,0-1.807Z" transform="translate(-256 -143.99)"/>
    </g>
  </g>
  <g id="Group_2131" data-name="Group 2131" transform="translate(14.454 10.839)">
    <g id="Group_2130" data-name="Group 2130">
      <path id="Path_3852" data-name="Path 3852" d="M260.517,207.99H256.9a.9.9,0,0,0,0,1.807h3.613a.9.9,0,1,0,0-1.807Z" transform="translate(-256 -207.99)"/>
    </g>
  </g>
  <g id="Group_2133" data-name="Group 2133" transform="translate(14.454 14.453)">
    <g id="Group_2132" data-name="Group 2132">
      <path id="Path_3853" data-name="Path 3853" d="M260.517,271.99H256.9a.9.9,0,1,0,0,1.807h3.613a.9.9,0,1,0,0-1.807Z" transform="translate(-256 -271.99)"/>
    </g>
  </g>
  <g id="Group_2135" data-name="Group 2135" transform="translate(14.454 18.066)">
    <g id="Group_2134" data-name="Group 2134">
      <path id="Path_3854" data-name="Path 3854" d="M260.517,335.99H256.9a.9.9,0,1,0,0,1.807h3.613a.9.9,0,1,0,0-1.807Z" transform="translate(-256 -335.99)"/>
    </g>
  </g>
  <g id="Group_2137" data-name="Group 2137" transform="translate(21.681 7.226)">
    <g id="Group_2136" data-name="Group 2136">
      <path id="Path_3855" data-name="Path 3855" d="M386.71,143.99H384.9a.9.9,0,0,0,0,1.807h1.807a.9.9,0,0,0,0-1.807Z" transform="translate(-384 -143.99)"/>
    </g>
  </g>
  <g id="Group_2139" data-name="Group 2139" transform="translate(21.681 10.839)">
    <g id="Group_2138" data-name="Group 2138">
      <path id="Path_3856" data-name="Path 3856" d="M386.71,207.99H384.9a.9.9,0,0,0,0,1.807h1.807a.9.9,0,0,0,0-1.807Z" transform="translate(-384 -207.99)"/>
    </g>
  </g>
  <g id="Group_2141" data-name="Group 2141" transform="translate(21.681 14.453)">
    <g id="Group_2140" data-name="Group 2140">
      <path id="Path_3857" data-name="Path 3857" d="M386.71,271.99H384.9a.9.9,0,1,0,0,1.807h1.807a.9.9,0,1,0,0-1.807Z" transform="translate(-384 -271.99)"/>
    </g>
  </g>
  <g id="Group_2143" data-name="Group 2143" transform="translate(21.681 18.066)">
    <g id="Group_2142" data-name="Group 2142">
      <path id="Path_3858" data-name="Path 3858" d="M386.71,335.99H384.9a.9.9,0,1,0,0,1.807h1.807a.9.9,0,0,0,0-1.807Z" transform="translate(-384 -335.99)"/>
    </g>
  </g>
  <g id="Group_2145" data-name="Group 2145" transform="translate(4.517 9.032)">
    <g id="Group_2144" data-name="Group 2144">
      <path id="Path_3859" data-name="Path 3859" d="M87.912,183.52l-6.324-7.227a.9.9,0,0,0-1.36,1.189l6.324,7.227a.9.9,0,0,0,1.36-1.189Z" transform="translate(-80.004 -175.984)"/>
    </g>
  </g>
  <g id="Group_2147" data-name="Group 2147" transform="translate(4.517 8.129)">
    <g id="Group_2146" data-name="Group 2146">
      <path id="Path_3860" data-name="Path 3860" d="M87.781,160.183a.9.9,0,0,0-1.268.157l-6.324,8.13a.9.9,0,0,0,1.425,1.111l6.324-8.13A.9.9,0,0,0,87.781,160.183Z" transform="translate(-79.999 -159.992)"/>
    </g>
  </g>
</svg>
