<svg xmlns="http://www.w3.org/2000/svg" width="51.991" height="51.961" viewBox="0 0 51.991 51.961">
  <g id="info" transform="translate(-5.999 -6.036)">
    <g id="LINE_57_">
      <g id="Group_2097" data-name="Group 2097">
        <path id="Path_3843" data-name="Path 3843" d="M31.99,44.9a2,2,0,0,1-2-2v-15.8a2,2,0,1,1,4,0V42.9a2,2,0,0,1-2,2Z"/>
      </g>
    </g>
    <g id="POINT_1_">
      <g id="Group_2098" data-name="Group 2098">
        <path id="Path_3844" data-name="Path 3844" d="M31.99,23.11a1.994,1.994,0,0,1-1.41-3.41,2.058,2.058,0,0,1,2.82-.01,2.006,2.006,0,0,1,.59,1.42,2.015,2.015,0,0,1-2,2Z"/>
      </g>
    </g>
    <g id="CIRCLE_3_">
      <g id="Group_2099" data-name="Group 2099">
        <path id="Path_3845" data-name="Path 3845" d="M31.923,58a25.79,25.79,0,0,1-6.7-.881,26,26,0,0,1-9.175-45.647,26,26,0,0,1,31.89,41.076A26.193,26.193,0,0,1,31.923,58Zm.126-47.961A21.987,21.987,0,0,0,26.26,53.253,21.825,21.825,0,0,0,31.923,54h0a22,22,0,0,0,9.9-41.678,21.948,21.948,0,0,0-9.771-2.283Z"/>
      </g>
    </g>
  </g>
</svg>
