<svg id="info" xmlns="http://www.w3.org/2000/svg" width="35.866" height="35.845" viewBox="0 0 35.866 35.845">
  <g id="LINE_57_" transform="translate(16.55 13.157)">
    <g id="Group_2100" data-name="Group 2100">
      <path id="Path_3846" data-name="Path 3846" d="M31.37,38.764a1.38,1.38,0,0,1-1.38-1.38v-10.9a1.38,1.38,0,1,1,2.759,0v10.9a1.379,1.379,0,0,1-1.38,1.38Z" transform="translate(-29.99 -25.109)" fill="#fff"/>
    </g>
  </g>
  <g id="POINT_1_" transform="translate(16.55 9.037)">
    <g id="Group_2101" data-name="Group 2101" transform="translate(0 0)">
      <path id="Path_3847" data-name="Path 3847" d="M31.37,21.878a1.376,1.376,0,0,1-.973-2.352,1.42,1.42,0,0,1,1.945-.007,1.384,1.384,0,0,1,.407.98,1.39,1.39,0,0,1-1.38,1.38Z" transform="translate(-29.99 -19.136)" fill="#fff"/>
    </g>
  </g>
  <g id="CIRCLE_3_">
    <g id="Group_2102" data-name="Group 2102">
      <path id="Path_3848" data-name="Path 3848" d="M23.882,41.881a17.791,17.791,0,0,1-4.624-.608A17.935,17.935,0,1,1,31.943,7.9a17.932,17.932,0,0,1-8.061,33.979ZM23.969,8.8a15.167,15.167,0,0,0-3.994,29.813,15.056,15.056,0,0,0,3.907.513h0A15.175,15.175,0,0,0,30.71,10.37,15.141,15.141,0,0,0,23.969,8.8Z" transform="translate(-5.999 -6.036)" fill="#fff"/>
    </g>
  </g>
</svg>
