<svg id="invoice" xmlns="http://www.w3.org/2000/svg" width="26.484" height="26.226" viewBox="0 0 26.484 26.226">
  <path id="Path_3801" data-name="Path 3801" d="M26.266,5.707,23.139,2.725a.634.634,0,0,0-.472-.232H10.144a.664.664,0,0,0-.663.663V5.194L5.066,5.95a.654.654,0,0,0-.53.754L4.76,8.011C3.325,8.493,1.852,8.991.43,9.5a.657.657,0,0,0-.392.835L2.866,18.2a.388.388,0,0,0,.73-.263L.809,10.19c1.34-.48,2.727-.949,4.083-1.406l1.333,7.772,1.534,8.95a.657.657,0,0,0,.754.532l4.154-.713,3.246-.556-4.883,1.755-3.85,1.384-2.99-8.317a.388.388,0,0,0-.73.263l3.033,8.435a.655.655,0,0,0,.614.43.642.642,0,0,0,.221-.039l3.966-1.426L20.3,24.017l1.72-.295h3.8a.665.665,0,0,0,.663-.665V6.144a.558.558,0,0,0-.218-.437ZM25.238,5.8H23.249c-.093,0-.311,0-.366-.053a.218.218,0,0,1-.028-.134l0-2.091Zm.47,17.148H10.256V15.386a.388.388,0,0,0-.776,0v7.672a.665.665,0,0,0,.663.665h7.284l-4.89.838L8.5,25.253,6.99,16.425,5.321,6.694,9.48,5.981v7.6a.388.388,0,1,0,.776,0V3.269H22.074l.005,2.345a.924.924,0,0,0,.257.683,1.186,1.186,0,0,0,.862.278h2.51Z" transform="translate(0 -2.493)"/>
  <path id="Path_3802" data-name="Path 3802" d="M234.43,111.837a.388.388,0,0,0,.388.388H245.91a.388.388,0,0,0,0-.776H234.818A.388.388,0,0,0,234.43,111.837Z" transform="translate(-222.304 -105.813)"/>
  <path id="Path_3803" data-name="Path 3803" d="M245.91,164.731H234.818a.388.388,0,0,0,0,.776H245.91a.388.388,0,0,0,0-.776Z" transform="translate(-222.304 -156.339)"/>
  <path id="Path_3804" data-name="Path 3804" d="M245.91,218.013H234.818a.388.388,0,0,0,0,.776H245.91a.388.388,0,0,0,0-.776Z" transform="translate(-222.304 -206.865)"/>
  <path id="Path_3805" data-name="Path 3805" d="M245.91,271.295H234.818a.388.388,0,0,0,0,.776H245.91a.388.388,0,0,0,0-.776Z" transform="translate(-222.304 -257.391)"/>
  <path id="Path_3806" data-name="Path 3806" d="M245.91,324.578H234.818a.388.388,0,0,0,0,.776H245.91a.388.388,0,0,0,0-.776Z" transform="translate(-222.304 -307.918)"/>
</svg>
