<svg id="lightbulb-2" xmlns="http://www.w3.org/2000/svg" width="25.178" height="30.202" viewBox="0 0 25.178 30.202">
  <g id="Group_130" data-name="Group 130">
    <g id="Group_129" data-name="Group 129" transform="translate(0)">
      <path id="Path_57" data-name="Path 57" d="M113.1,93.2a7.779,7.779,0,0,0-5.141,13.606c1.229,1.229,1.118,3.856,1.09,3.883a.463.463,0,0,0,.14.363.516.516,0,0,0,.335.14h7.124a.463.463,0,0,0,.335-.14.531.531,0,0,0,.14-.363c0-.028-.14-2.654,1.09-3.883l.084-.084A7.755,7.755,0,0,0,113.1,93.2Zm4.47,12.88c-.028.028-.084.084-.084.112a6.524,6.524,0,0,0-1.313,4.023h-6.174a6.492,6.492,0,0,0-1.4-4.135,6.8,6.8,0,1,1,8.968,0Z" transform="translate(-100.484 -86.69)" fill="#0b3058"/>
      <path id="Path_58" data-name="Path 58" d="M209.8,121.6a.475.475,0,0,0,0,.95,5.085,5.085,0,0,1,5.085,5.085.475.475,0,1,0,.95,0A6.01,6.01,0,0,0,209.8,121.6Z" transform="translate(-197.22 -113.107)" fill="#0b3058"/>
      <path id="Path_59" data-name="Path 59" d="M162.3,358.4h-6.2a1.173,1.173,0,0,0,0,2.347h6.174a1.2,1.2,0,0,0,1.2-1.173A1.181,1.181,0,0,0,162.3,358.4Zm0,1.369h-6.2a.22.22,0,0,1-.223-.224.206.206,0,0,1,.223-.223h6.174a.22.22,0,0,1,.224.223A.2.2,0,0,1,162.3,359.769Z" transform="translate(-146.62 -333.367)" fill="#0b3058"/>
      <path id="Path_60" data-name="Path 60" d="M173.661,398.8H169.3a1.173,1.173,0,0,0,0,2.347h4.358a1.181,1.181,0,0,0,1.173-1.173A1.163,1.163,0,0,0,173.661,398.8Zm0,1.369H169.3a.22.22,0,0,1-.223-.224.206.206,0,0,1,.223-.224h4.358a.224.224,0,0,1,0,.447Z" transform="translate(-158.898 -370.945)" fill="#0b3058"/>
      <path id="Path_61" data-name="Path 61" d="M209.8,4.191a.471.471,0,0,0,.475-.475V.475a.475.475,0,1,0-.95,0V3.716A.49.49,0,0,0,209.8,4.191Z" transform="translate(-197.22)" fill="#0b3058"/>
      <path id="Path_62" data-name="Path 62" d="M295.662,33.2a.451.451,0,0,0-.643.112L293.231,36a.46.46,0,0,0,.112.671.45.45,0,0,0,.251.084.446.446,0,0,0,.391-.224l1.788-2.682A.433.433,0,0,0,295.662,33.2Z" transform="translate(-275.171 -30.8)" fill="#0b3058"/>
      <path id="Path_63" data-name="Path 63" d="M105.266,34.59a.451.451,0,0,0,.251-.084.489.489,0,0,0,.14-.671l-1.732-2.71a.484.484,0,0,0-.81.531l1.732,2.71A.463.463,0,0,0,105.266,34.59Z" transform="translate(-98.354 -28.751)" fill="#0b3058"/>
      <path id="Path_64" data-name="Path 64" d="M39.5,104.88l-2.822-1.537a.492.492,0,0,0-.643.2.446.446,0,0,0,.2.643l2.822,1.537a.657.657,0,0,0,.224.056.461.461,0,0,0,.419-.251A.492.492,0,0,0,39.5,104.88Z" transform="translate(-35.966 -96.08)" fill="#0b3058"/>
      <path id="Path_65" data-name="Path 65" d="M345.961,103.539a.492.492,0,0,0-.643-.2l-2.85,1.537a.492.492,0,0,0-.2.643.461.461,0,0,0,.419.251.526.526,0,0,0,.224-.056l2.85-1.537A.492.492,0,0,0,345.961,103.539Z" transform="translate(-320.832 -96.08)" fill="#0b3058"/>
    </g>
  </g>
</svg>
