<svg xmlns="http://www.w3.org/2000/svg" width="34.235" height="47.633" viewBox="0 0 34.235 47.633">
  <path id="Path_40" data-name="Path 40" d="M110.984,41.811a8.25,8.25,0,0,0-1.057-.966,9.9,9.9,0,0,0-2.668-.054,1.543,1.543,0,0,0-.846.784l-.142.553a2.082,2.082,0,0,0-.094.965h.071l.512-.528,1.359-.041.022.482c-.308.066-.977-.022-1.218.066l-.649.618c-.024.1.048.671.028.925a2.377,2.377,0,0,0,0,.753h.063l.576-.526,1.337-.042v.486c-.305.061-.926-.026-1.172.061l-.764.559-.068.132q-.055.7-.094,1.4c.094.344.44-.136.581-.362.728.066,1.38.083,1.95.137h.3l.251-.235c.251-.218.294-.526.785-.591a3.608,3.608,0,0,0,1.416-.137c.249-.166.249-.49.464-.7a11.449,11.449,0,0,1,2.159-1.168c1.8-.949,2.483-.623,4.707-2.285l1.06-.687.344.418c-.668.482-1.677,1.193-1.677,1.193.34,1.333,1.239,2.138,2.363,3.335a14.108,14.108,0,0,0,4.526,3.107,28.588,28.588,0,0,0-5.356,3.934c-1.4,1.339-3.118,2.736-3.306,3.777-.251,1.29.6,3.536,1.5,6.09l.2.58-.137.275-.412.16a13.844,13.844,0,0,0-2.3.257,4.6,4.6,0,0,0-1.094.848,4.981,4.981,0,0,0-.715,2.527l.2.164.3-.323a1.814,1.814,0,0,1,.965-.113c.3-.764.439-1.635,1.129-1.61l.18.118a3.168,3.168,0,0,0-.741,1.631l.166.185c.178-.052.3-.4.574-.419a8.462,8.462,0,0,1,1.377-.027l.07-.06a2.515,2.515,0,0,1,.275-1.125l.525.083c-.181.346-.344.4-.344,1.59.028.071.114.2.368-.143l.387-.344c.627-.062,1.519.076,1.837-.138a8.512,8.512,0,0,0,1.063-1.15l.231-.505c.065-.41.252-1.287.367-1.88a3.808,3.808,0,0,1,.048-4.257c.8-.9,1.883-1.059,4.012-1.907a5.365,5.365,0,0,1-1.053-3.024l.572.053a4.666,4.666,0,0,0,.509,1.863,7,7,0,0,0,1.886,2.4c.664.55,2.756,1.7,2.756,2,0,.36.224,1.4.224,2.827-.088.531-1.28.6-2.175.8a4.741,4.741,0,0,0-1.129.882,5.238,5.238,0,0,0-.732,2.528l.208.162.294-.319a2.1,2.1,0,0,1,.994-.122c.294-.757.434-1.635,1.125-1.6l.159.109c.051.165-.618.509-.733,1.632l.158.188c.208-.046.3-.393.575-.412a8.4,8.4,0,0,1,1.4-.022l.073-.072a2.934,2.934,0,0,1,.251-1.129l.527.1c-.182.343-.346.388-.346,1.585.055.069.121.209.378-.134l.4-.347c.608-.072,1.3.065,1.617-.14a13.74,13.74,0,0,0,1.057-1.385l.048-.18c0-.158-.163-1.215-.258-2.138a14.919,14.919,0,0,1,.209-3.2l-.022-.46a9.43,9.43,0,0,1-1.489-4.21,3.785,3.785,0,0,1,.293-2.511l.253-1.015c0-.321-.023-.62-.023-1.051l.138-.142A5.927,5.927,0,0,0,138.3,50a4.162,4.162,0,0,0,1.1-1.871,10.824,10.824,0,0,0-.136-4.635,31.977,31.977,0,0,1-.418-3.435,34.285,34.285,0,0,1-.089-5.776,3.24,3.24,0,0,1,.138-.783,2.066,2.066,0,0,0,1.074-1.5l.395-1.985a2.243,2.243,0,0,0-1.309-2.185l-.533-.069c-.664-.161-1.695.964-1.764,1.683l-.23,2a1.959,1.959,0,0,0,.552,1.754,9.623,9.623,0,0,1-.116,1.081,46.821,46.821,0,0,0-.185,4.949c.043.971.093,1.512.207,2.484.1.827.207,1.287.323,2.123a9.567,9.567,0,0,1,.138,1.764c.022,1.556-.461,2.644-2.211,2.95a4.052,4.052,0,0,1-1.424.042c-.188-.164-.344-.784-.8-1.035-2.369-1.425-3.174-1.864-3.656-3.871-.777-3.264-.483-5.015,1.245-9.332.088-.829.408-1.454.434-1.979.184-2.12.776-2.6-.664-6.244-.374.352-.344,1.221-.647,1.065a4.3,4.3,0,0,1-1.03-2.118,10.4,10.4,0,0,1-.114-1.8,4.4,4.4,0,0,0-.786-.764c-.371-.246-.086-.642-.135-.987a1.2,1.2,0,0,0-1.518-.936c-.48.109-.616.527-1.176.733-.481.161-3.028.642-3.028.642a2.975,2.975,0,0,0-1.284.224,1.759,1.759,0,0,0-.741.971,1.535,1.535,0,0,1-1.125.41H118.5c-.395.142-.646.231-.992.366l-.137.207c0,.183.116.72.185,1.313l.3.465.164.132a3.776,3.776,0,0,0,.3,1.037l.208.053a3.357,3.357,0,0,1,2.506-.162l.134.187a2.078,2.078,0,0,1,.09.986l-.16.25-.318.115a10.2,10.2,0,0,1-2.188-.115c0,.621-.016,1.427.323,1.526a5.765,5.765,0,0,0,1.059.06c0,.511-.115.833.131,1.227.262.187.806-.969,1.731-1.5l.043.093a12.518,12.518,0,0,1-1.72,2.26,2.329,2.329,0,0,1-.485-1.82,2.375,2.375,0,0,0-.622,2.74c.256-.1.482-.51.759-.644l.162.09c-.485.525-.485,1.429-.92,1.381a3.187,3.187,0,0,1-.507-1.683l-.186.074a5.453,5.453,0,0,0-.388,3.085l.113.065c.252-.361.327-.986.619-1.244l.189.055a7.905,7.905,0,0,0-.765,2.711l-.064.183a5.228,5.228,0,0,1-.23-4.44c-1.01.34-1.426,0-2.462-.524,0,0-.691-.513-1.118-.811l-3.476-2.534c0-.719.027-1.468-.5-1.864a13.717,13.717,0,0,0-3.24-.115l-.732.712a4.077,4.077,0,0,0-.094,1.36h.067l.509-.531,1.013-.045.016.484c-.3.072-.619-.029-.872.072l-.667.575a6.213,6.213,0,0,0-.094,1.354h.071l.489-.527,1.036-.055v.488c-.307.073-.625-.021-.851.073l-.649.53a6.326,6.326,0,0,0-.094,1.358h.071l.489-.523,1.036-.052,1.009.806,1.583.11a9.563,9.563,0,0,0,1.838,1.8c.921.7,3.238,2.924,3.88,3.2l1.314-.855.318.39c-.662.481-1.77,1.271-1.77,1.271-2.657,2.139-3.442,2.1-4.8,3.06l-.162-.025Z" transform="translate(-106.154 -20.558)" fill="#fff"/>
</svg>
