<svg id="love" xmlns="http://www.w3.org/2000/svg" width="27.307" height="25.601" viewBox="0 0 27.307 25.601">
  <path id="Path_66" data-name="Path 66" d="M124.841,20.8c0-1.856-1.214-4.8-4.473-4.8a4.014,4.014,0,0,0-3.357,1.879A4.014,4.014,0,0,0,113.653,16c-3.259,0-4.473,2.944-4.473,4.8,0,3.2,2.5,5.2,5.909,8.118.5.429,1.02.872,1.572,1.351a.533.533,0,0,0,.7,0c.553-.479,1.071-.923,1.572-1.351,3.572-3.054,5.909-4.986,5.909-8.118Zm-7.831,8.362c-.426-.368-.833-.715-1.229-1.054-3.569-3.052-5.535-4.733-5.535-7.308a3.52,3.52,0,0,1,3.406-3.733,3.293,3.293,0,0,1,2.889,2.074.533.533,0,0,0,.936,0,3.293,3.293,0,0,1,2.889-2.074,3.524,3.524,0,0,1,3.406,3.733c0,2.574-1.966,4.256-5.535,7.308C117.843,28.446,117.437,28.794,117.011,29.162Z" transform="translate(-103.357 -16)" fill="#0b3058"/>
  <path id="Path_67" data-name="Path 67" d="M3.833,131.58,6.4,132.863v2.87a.533.533,0,0,0,.533.533h5.653a.533.533,0,0,0,.533-.533v-6.963a3.157,3.157,0,0,0-2.847-3.152l-.044,0a6.777,6.777,0,0,1-3.257-1.392l-1.2-1.2a2.119,2.119,0,0,0-1.508-.625v-4.267a2.133,2.133,0,0,0-4.267,0v7.245a6.934,6.934,0,0,0,3.833,6.2ZM1.067,118.133a1.067,1.067,0,0,1,2.133,0v4.553a2.133,2.133,0,0,0-.442,3.356l2.731,2.732a.533.533,0,1,0,.754-.754l-2.731-2.732a1.067,1.067,0,0,1,.4-1.76h0a1.065,1.065,0,0,1,1.109.252l1.2,1.2a8.907,8.907,0,0,0,3.944,1.7,2.094,2.094,0,0,1,1.891,2.091V135.2H7.467v-2.667a.533.533,0,0,0-.295-.477L4.31,130.626a5.835,5.835,0,0,1-3.243-5.247Z" transform="translate(0 -110.667)" fill="#0b3058"/>
  <circle id="Ellipse_3" data-name="Ellipse 3" cx="0.392" cy="0.392" r="0.392" transform="translate(23.849 19.074)" fill="#0b3058"/>
  <path id="Path_68" data-name="Path 68" d="M276.987,116a2.136,2.136,0,0,0-2.133,2.133V122.4a2.119,2.119,0,0,0-1.508.625l-1.2,1.2a6.778,6.778,0,0,1-3.261,1.392l-.035,0A3.158,3.158,0,0,0,266,128.771v6.963a.533.533,0,0,0,.533.533h5.653a.533.533,0,0,0,.533-.533v-2.87l1.746-.873a.533.533,0,1,0-.477-.954l-2.041,1.02a.533.533,0,0,0-.295.477V135.2h-4.587v-6.429a2.1,2.1,0,0,1,1.9-2.091l.035,0a7.835,7.835,0,0,0,3.9-1.7l1.2-1.2a1.066,1.066,0,0,1,1.109-.252h0a1.067,1.067,0,0,1,.4,1.76l-2.731,2.732a.533.533,0,1,0,.754.754l2.731-2.732a2.133,2.133,0,0,0-.442-3.356v-4.553a1.067,1.067,0,1,1,2.133,0v7.245a5.882,5.882,0,0,1-.712,2.8.533.533,0,0,0,.937.51,6.953,6.953,0,0,0,.842-3.311v-7.245A2.136,2.136,0,0,0,276.987,116Z" transform="translate(-251.813 -110.667)" fill="#0b3058"/>
</svg>
