<svg id="motorway" xmlns="http://www.w3.org/2000/svg" width="26.774" height="26.819" viewBox="0 0 26.774 26.819">
  <g id="Group_145" data-name="Group 145">
    <path id="Path_69" data-name="Path 69" d="M259.8.1a.393.393,0,0,0-.308-.1,58.31,58.31,0,0,0-13.179,2.87l-.038.014a.393.393,0,1,0,.279.734l.038-.014A56.526,56.526,0,0,1,259.149.837v1.89a24.207,24.207,0,0,0-9.2,6.236,11.366,11.366,0,0,0-2.4,4.548,10.132,10.132,0,0,0,.182,5.391.393.393,0,1,0,.753-.224,9.252,9.252,0,0,1,1.28-8.172v3.843a1.04,1.04,0,0,0-.882,1.026v1.135a.393.393,0,0,0,.393.393h3.842a.393.393,0,0,0,.393-.393V15.374a1.04,1.04,0,0,0-.882-1.026V7.417a22.1,22.1,0,0,1,2.6-1.844v2.8a1.031,1.031,0,0,0-.882,1.018v1.1a.393.393,0,0,0,.393.393h3.842a.393.393,0,0,0,.393-.393v-1.1a1.031,1.031,0,0,0-.882-1.018V4.047q.775-.36,1.6-.693a.393.393,0,0,0,.246-.364V.392A.393.393,0,0,0,259.8.1Zm-9.254,9.367a15.266,15.266,0,0,1,1.293-1.358v6.228h-1.293Zm2.175,5.909v.743h-3.056v-.743a.254.254,0,0,1,.253-.253h2.549A.254.254,0,0,1,252.724,15.374Zm3.289-10.262q.626-.353,1.293-.686V8.358h-1.293Zm2.175,4.277v.7h-3.056v-.7a.245.245,0,0,1,.245-.245h2.567A.245.245,0,0,1,258.187,9.389Z" transform="translate(-233.161 0)" fill="#0b3058"/>
    <path id="Path_70" data-name="Path 70" d="M20.827,90.426a15.184,15.184,0,0,1-4.445-5.766.393.393,0,0,0-.715.325A16.675,16.675,0,0,0,19.5,90.348H3.048v0a2.87,2.87,0,0,0-.113-.284,16.24,16.24,0,0,1-1.715-7.489,13.3,13.3,0,0,1,2.827-8.016,20.259,20.259,0,0,1,8.107-5.933.393.393,0,1,0-.316-.719A21.01,21.01,0,0,0,3.43,74.067a14.074,14.074,0,0,0-3,8.485,15.142,15.142,0,0,0,.575,4.583,20.963,20.963,0,0,0,.729,2.113c.153.38.616,1.489.7,1.664a.393.393,0,0,0,.354.222h17.8a.393.393,0,0,0,.235-.708Z" transform="translate(-0.428 -64.315)" fill="#0b3058"/>
    <path id="Path_71" data-name="Path 71" d="M139.218,320.489q-.006.093-.012.186c-.015.263-.023.532-.023.8v.091a.393.393,0,0,0,.393.391h0a.393.393,0,0,0,.391-.395v-.086c0-.252.007-.506.021-.754q.005-.089.011-.177a.393.393,0,0,0-.784-.054Z" transform="translate(-131.916 -303.357)" fill="#0b3058"/>
    <path id="Path_72" data-name="Path 72" d="M241.146,122.284a.391.391,0,0,0,.238-.081q.129-.1.26-.195c.186-.137.379-.274.573-.407a.393.393,0,1,0-.446-.647c-.2.138-.4.28-.592.421q-.137.1-.272.2a.393.393,0,0,0,.239.7Z" transform="translate(-228.166 -114.553)" fill="#0b3058"/>
    <path id="Path_73" data-name="Path 73" d="M198,159.075c-.255.257-.5.524-.729.794a.393.393,0,0,0,.6.509c.216-.254.447-.506.688-.749a.393.393,0,0,0-.558-.553Z" transform="translate(-186.871 -150.633)" fill="#0b3058"/>
    <path id="Path_74" data-name="Path 74" d="M145.674,262.944a.393.393,0,0,0,.466-.3c.071-.333.155-.665.25-.987a.393.393,0,1,0-.754-.221c-.1.34-.189.691-.264,1.044A.393.393,0,0,0,145.674,262.944Z" transform="translate(-137.773 -247.474)" fill="#0b3058"/>
    <path id="Path_75" data-name="Path 75" d="M165.623,206.244a.393.393,0,0,0-.538.138c-.181.307-.352.628-.509.954a.393.393,0,1,0,.708.34c.147-.306.307-.606.477-.894A.393.393,0,0,0,165.623,206.244Z" transform="translate(-155.943 -195.391)" fill="#0b3058"/>
    <path id="Path_76" data-name="Path 76" d="M344.79,66.166a.391.391,0,0,0,.156-.033c.315-.137.637-.27.955-.394a.393.393,0,0,0-.286-.732c-.327.128-.657.264-.982.405a.393.393,0,0,0,.157.753Z" transform="translate(-326.382 -61.577)" fill="#0b3058"/>
    <path id="Path_77" data-name="Path 77" d="M401.067,47.6a.394.394,0,0,0,.114-.017c.331-.1.665-.193.992-.276a.393.393,0,1,0-.194-.761c-.338.086-.683.182-1.025.285a.393.393,0,0,0,.113.769Z" transform="translate(-379.712 -44.099)" fill="#0b3058"/>
    <path id="Path_78" data-name="Path 78" d="M156.579,439.764a.393.393,0,1,0,.7-.35,8.815,8.815,0,0,1-.392-.922.393.393,0,1,0-.739.268A9.6,9.6,0,0,0,156.579,439.764Z" transform="translate(-147.973 -415.281)" fill="#0b3058"/>
    <path id="Path_79" data-name="Path 79" d="M291.2,91.211a.391.391,0,0,0,.2-.052c.3-.17.6-.338.905-.5a.393.393,0,1,0-.366-.7c-.314.165-.627.337-.931.513a.393.393,0,0,0,.2.733Z" transform="translate(-275.594 -85.21)" fill="#0b3058"/>
    <path id="Path_80" data-name="Path 80" d="M142.326,381.02c.027.15.055.3.084.444a.393.393,0,1,0,.77-.154c-.028-.139-.055-.282-.081-.427-.034-.195-.066-.391-.093-.583a.393.393,0,0,0-.778.11C142.257,380.611,142.29,380.816,142.326,381.02Z" transform="translate(-134.798 -360.062)" fill="#0b3058"/>
  </g>
</svg>
