<svg id="open-book" xmlns="http://www.w3.org/2000/svg" width="25.944" height="26.097" viewBox="0 0 25.944 26.097">
  <path id="Path_43" data-name="Path 43" d="M248.882,282.924a.382.382,0,0,0-.382.382v4.587a.382.382,0,0,0,.765,0v-4.587A.382.382,0,0,0,248.882,282.924Z" transform="translate(-235.91 -268.503)" fill="#0b3058"/>
  <path id="Path_44" data-name="Path 44" d="M27.062,15.186a.382.382,0,0,0,.382-.382V3.234a.9.9,0,0,0-1.329-.777l-.26.146L24.628,1.357a.383.383,0,0,0-.358-.1,17.011,17.011,0,0,0-2.063.657V.383a.382.382,0,0,0-.521-.356A12.407,12.407,0,0,0,15.3,5.221a10.411,10.411,0,0,0-.827,1.756,10.411,10.411,0,0,0-.827-1.756A12.407,12.407,0,0,0,7.258.026a.382.382,0,0,0-.521.356V1.909a17.016,17.016,0,0,0-2.063-.657.382.382,0,0,0-.358.1L3.089,2.6l-.26-.146A.9.9,0,0,0,1.5,3.234V19.3a.893.893,0,0,0,.455.777l9.854,5.543a1.03,1.03,0,0,0,.711.072.892.892,0,0,0,.746.4h2.413a.892.892,0,0,0,.746-.4.881.881,0,0,0,.711-.072l9.854-5.543a.893.893,0,0,0,.455-.777V17.25a.382.382,0,0,0-.765,0V19.3a.128.128,0,0,1-.065.111L16.76,24.954a.127.127,0,0,1-.19-.111V8.989c-.014-.076-.017-.277.065-.323l9.854-5.543a.127.127,0,0,1,.19.111V14.8a.382.382,0,0,0,.382.382ZM21.443.954V2.218c-.361.154-.744.328-1.139.526a16.4,16.4,0,0,0-4.6,3.324q.116-.224.254-.459A11.491,11.491,0,0,1,21.443.954Zm-5.637,10.62H13.138v-.934h2.667Zm-2.667.765h2.667v9.517H13.138Zm0,10.282h2.667v.934H13.138ZM15.806,9.875H13.138V8.989a.128.128,0,0,1,.127-.127h2.413a.128.128,0,0,1,.127.127ZM4.707,2.049A20.039,20.039,0,0,1,8.694,3.63a.383.383,0,0,0,.356-.676c-.542-.286-1.065-.529-1.549-.736V.954a11.5,11.5,0,0,1,5.465,4.622c.1.164.186.325.268.482a14.241,14.241,0,0,0-2.06-1.8.382.382,0,0,0-.447.62A12.24,12.24,0,0,1,13.874,8.1c-.444-.036-.823.11-1.191-.1L3.78,2.991Zm7.6,22.9h-.127L2.33,19.411a.128.128,0,0,1-.065-.111V3.234a.129.129,0,0,1,.19-.111l9.854,5.543c.082.046.079.246.065.323V24.843a.124.124,0,0,1-.063.11Zm3.5.252a.128.128,0,0,1-.127.127H13.266a.128.128,0,0,1-.127-.127v-.886h2.667ZM16.26,8c-.374.211-.738.066-1.19.1a14.2,14.2,0,0,1,5.557-4.66,20.006,20.006,0,0,1,3.61-1.387l.927.942Z" transform="translate(-1.5 0)" fill="#0b3058"/>
  <path id="Path_45" data-name="Path 45" d="M326.159,130.04l-7.136,4.078a.382.382,0,0,0-.193.332v2.464a.386.386,0,0,0,.572.332l7.136-4.078a.382.382,0,0,0,.193-.332v-2.464A.387.387,0,0,0,326.159,130.04Zm-.193,2.575-6.372,3.641v-1.584l6.372-3.641Z" transform="translate(-302.656 -123.364)" fill="#0b3058"/>
</svg>
