<svg xmlns="http://www.w3.org/2000/svg" width="28.331" height="29.824" viewBox="0 0 28.331 29.824">
  <g id="outline" transform="translate(0 0)">
    <path id="Path_50" data-name="Path 50" d="M144.083,259.922a.5.5,0,0,0-.667.222l-.066.132a1.526,1.526,0,0,1-2.731,0l-.066-.132a.5.5,0,0,0-.889.445l.066.132a2.521,2.521,0,0,0,4.509,0l.066-.132A.5.5,0,0,0,144.083,259.922Z" transform="translate(-132.428 -244.716)" fill="#0b3058"/>
    <path id="Path_51" data-name="Path 51" d="M95.693,27.042a2.5,2.5,0,0,0-.9-1.148.5.5,0,0,0-.022-.053,5.939,5.939,0,0,0-3.688-3.111,3.95,3.95,0,0,1,1.938-1.619,1.491,1.491,0,1,0-.091-1.022,4.944,4.944,0,0,0-2.874,2.44,5.933,5.933,0,0,0-5.917,3.219l-.186-.975,1.17-1.1a.5.5,0,0,0-.278-.856L84.3,22.75V20.361A1.74,1.74,0,0,0,83.68,17h-.019a1.987,1.987,0,0,0-3.442,0H80.2a1.74,1.74,0,0,0-.249,3.461v2.29l-.559.071a.5.5,0,0,0-.278.856l1.17,1.1-.3,1.576a.5.5,0,0,0,.728.529l1.405-.773,1.405.773a.493.493,0,0,0,.163.054,5.9,5.9,0,0,0-.171,1H75.2a.5.5,0,0,0-.492.425l-.2,1.372L72.092,33.11a.5.5,0,0,0,.073.659L73.988,35.4v6.945a.5.5,0,0,0,.442.494l4.031.448v2.04a.5.5,0,0,0,.5.5H89.893a.5.5,0,0,0,.5-.5V40.916l.6-2.373a24.19,24.19,0,0,0,.692-7.63H95.4a1.947,1.947,0,0,0,.291-3.872ZM83.307,20.476v2.149l-.058-.007-.683-1.452a.5.5,0,0,0-.9,0l-.683,1.452-.038,0V20.476Zm-3.852-1.74a.746.746,0,0,1,.746-.746h.334A.5.5,0,0,0,81,17.66a.993.993,0,0,1,1.873,0,.5.5,0,0,0,.469.331h.334a.746.746,0,0,1,0,1.491H80.2A.746.746,0,0,1,79.455,18.737Zm3.614,5.5a.5.5,0,0,0-.148.456l.154.806-.719-.4a.5.5,0,0,0-.479,0l-.719.4.154-.806a.5.5,0,0,0-.148-.456l-.6-.562.814-.1a.5.5,0,0,0,.388-.282l.349-.742.349.742a.5.5,0,0,0,.388.282l.814.1Zm11.3-4.255a.5.5,0,1,1-.5.5A.5.5,0,0,1,94.366,19.979Zm-4.939,3.51a4.9,4.9,0,0,1,3.94,1.957,2.466,2.466,0,0,0-1.06.242,3.974,3.974,0,0,0-6.824,2.243h-.97A4.946,4.946,0,0,1,89.427,23.489Zm.268,4.442H88.567a.992.992,0,0,1,1.4-.338,1.96,1.96,0,0,0-.27.338Zm1.356-.889q-.086.013-.169.033a1.987,1.987,0,0,0-3.38.856H86.487a2.981,2.981,0,0,1,5.02-1.639,2.476,2.476,0,0,0-.456.749ZM90.03,38.3l-.619,2.433a.5.5,0,0,0-.015.123v3.976H79.455V42.842a.5.5,0,0,0-.442-.494L74.982,41.9V38H75.99a2.615,2.615,0,0,0,1.861-.771.5.5,0,0,0-.7-.7,1.627,1.627,0,0,1-1.158.48H74.982V35.179a.5.5,0,0,0-.166-.37L73.16,33.325l2.226-3.117a.5.5,0,0,0,.087-.217l.156-1.066H89.4c0,.014,0,.028,0,.041A1.95,1.95,0,0,0,90.68,30.8,23.2,23.2,0,0,1,90.03,38.3ZM95.4,29.92H91.342a.953.953,0,1,1,0-1.905h.085a.5.5,0,0,0,.486-.394,1.491,1.491,0,0,1,2.917,0,.5.5,0,0,0,.486.394H95.4a.953.953,0,1,1,0,1.905Z" transform="translate(-69.017 -16.001)" fill="#0b3058"/>
    <path id="Path_52" data-name="Path 52" d="M304.5,21.436a.5.5,0,0,0,.5-.5v-.085a2.874,2.874,0,0,1,.632-1.805,1.74,1.74,0,1,0-.565-.864A3.863,3.863,0,0,0,304,20.854v.085A.5.5,0,0,0,304.5,21.436Zm2.237-4.473a.746.746,0,1,1-.746.746A.745.745,0,0,1,306.733,16.963Z" transform="translate(-286.604 -15.967)" fill="#0b3058"/>
    <path id="Path_53" data-name="Path 53" d="M113.489,75a1.482,1.482,0,0,0,.6-.129,4.32,4.32,0,0,1,.886,2.614.5.5,0,1,0,.994,0,5.318,5.318,0,0,0-1.146-3.291l-.01-.011a1.491,1.491,0,1,0-1.329.817Zm0-1.988a.5.5,0,1,1-.5.5.5.5,0,0,1,.5-.5Z" transform="translate(-106.53 -68.532)" fill="#0b3058"/>
    <path id="Path_54" data-name="Path 54" d="M59.439,138.195a2.511,2.511,0,0,1,1.631,1.077.5.5,0,0,0,.827-.551,3.5,3.5,0,0,0-2.5-1.536,1.739,1.739,0,1,0,.039,1.011Zm-2.428-.441a.746.746,0,1,1,.746.746.746.746,0,0,1-.746-.746Z" transform="translate(-54.028 -128.557)" fill="#0b3058"/>
    <path id="Path_55" data-name="Path 55" d="M26.972,91.916a.5.5,0,0,0-.435-.552,4.57,4.57,0,0,0-2.232.294.5.5,0,1,0,.369.923,3.574,3.574,0,0,1,1.745-.23.5.5,0,0,0,.553-.435Z" transform="translate(-23.993 -86.65)" fill="#0b3058"/>
    <path id="Path_56" data-name="Path 56" d="M87.132,104.9a3.563,3.563,0,0,1,.41.352l.1.1a.5.5,0,1,0,.7-.7l-.1-.1a4.57,4.57,0,0,0-.525-.451.5.5,0,0,0-.588.8Z" transform="translate(-83.019 -98.53)" fill="#0b3058"/>
  </g>
</svg>
