<svg id="people" xmlns="http://www.w3.org/2000/svg" width="21.871" height="28.494" viewBox="0 0 21.871 28.494">
  <path id="people-2" data-name="people" d="M79.361,12.4a2.87,2.87,0,0,0-1.5-4.981,2.633,2.633,0,0,0-2-2.407,2.872,2.872,0,1,0-3.828,0,2.636,2.636,0,0,0-1.592,1.135,2.636,2.636,0,0,0-1.592-1.135A2.871,2.871,0,0,0,65.514.373a.417.417,0,1,0,.412.726,2.037,2.037,0,1,1-1.014,1.488.417.417,0,1,0-.827-.116,2.9,2.9,0,0,0,.929,2.54,2.633,2.633,0,0,0-2,2.407,2.87,2.87,0,0,0-1.5,4.981A2.632,2.632,0,0,0,59.5,14.952v4.361a1.88,1.88,0,0,0,1.878,1.878h.033v6a1.306,1.306,0,0,0,1.3,1.3h1.417a1.306,1.306,0,0,0,1.3-1.3v-6h.033a1.875,1.875,0,0,0,1.46-.7,1.875,1.875,0,0,0,1.46.7h.033v6a1.306,1.306,0,0,0,1.3,1.3h1.417a1.306,1.306,0,0,0,1.3-1.3v-6h.033a1.875,1.875,0,0,0,1.46-.7,1.875,1.875,0,0,0,1.46.7h.033v6a1.306,1.306,0,0,0,1.3,1.3h1.417a1.306,1.306,0,0,0,1.3-1.3v-1.76a.418.418,0,0,0-.835,0v1.76a.47.47,0,0,1-.47.47H76.738a.47.47,0,0,1-.47-.47V16.146a.417.417,0,1,0-.835,0v4.21H75.4a1.044,1.044,0,0,1-1.043-1.043V14.952a1.8,1.8,0,0,1,1.793-1.793h2.591a1.8,1.8,0,0,1,1.793,1.793v4.361a1.044,1.044,0,0,1-1.043,1.043h-.039v-4.21a.417.417,0,1,0-.835,0v4.627a.419.419,0,0,0,.006.067V23.21a.418.418,0,0,0,.835,0V21.191h.033a1.88,1.88,0,0,0,1.878-1.878V14.952A2.632,2.632,0,0,0,79.361,12.4Zm.123-2.139a2.037,2.037,0,1,1-2.037-2.037A2.039,2.039,0,0,1,79.484,10.259ZM71.9,2.872a2.037,2.037,0,1,1,2.037,2.037A2.04,2.04,0,0,1,71.9,2.872ZM70.435,12.3a2.037,2.037,0,1,1,2.037-2.037A2.039,2.039,0,0,1,70.435,12.3Zm-4.8-6.525h2.591a1.8,1.8,0,0,1,1.787,1.647A2.87,2.87,0,0,0,68.52,12.4a2.636,2.636,0,0,0-1.592,1.135A2.636,2.636,0,0,0,65.337,12.4a2.87,2.87,0,0,0-1.49-4.979A1.8,1.8,0,0,1,65.633,5.771Zm-4.248,4.488A2.037,2.037,0,1,1,63.422,12.3,2.04,2.04,0,0,1,61.385,10.259Zm4.083,10.1h-.039v-4.21a.417.417,0,1,0-.835,0v4.627a.419.419,0,0,0,.006.067v6.348a.47.47,0,0,1-.47.47H62.714a.47.47,0,0,1-.47-.47V16.146a.417.417,0,1,0-.835,0v4.21h-.033a1.044,1.044,0,0,1-1.043-1.043V14.952a1.8,1.8,0,0,1,1.793-1.793h2.591a1.8,1.8,0,0,1,1.793,1.793v4.361A1.044,1.044,0,0,1,65.468,20.356Zm7.012,0h-.039v-4.21a.417.417,0,1,0-.835,0v4.627a.421.421,0,0,0,.006.067v6.348a.47.47,0,0,1-.47.47H69.726a.47.47,0,0,1-.47-.47V16.146a.417.417,0,1,0-.835,0v4.21h-.033a1.044,1.044,0,0,1-1.043-1.043V14.952a1.8,1.8,0,0,1,1.793-1.793H71.73a1.8,1.8,0,0,1,1.793,1.793v4.361A1.044,1.044,0,0,1,72.48,20.356Zm1.46-6.823A2.636,2.636,0,0,0,72.349,12.4a2.87,2.87,0,0,0-1.49-4.979,1.8,1.8,0,0,1,1.787-1.647h2.591a1.8,1.8,0,0,1,1.787,1.647,2.87,2.87,0,0,0-1.49,4.979A2.636,2.636,0,0,0,73.941,13.533Z" transform="translate(-59.499)" fill="#0b3058"/>
</svg>
