<svg id="price-tag-2" xmlns="http://www.w3.org/2000/svg" width="28.75" height="36.696" viewBox="0 0 28.75 36.696">
  <path id="Path_81" data-name="Path 81" d="M83.644,27.809a.538.538,0,0,0,.538-.538v-12.9a2.937,2.937,0,0,0-.7-1.848l-3.987-4.83a3.152,3.152,0,0,0-.71-.636c.016-.164.025-.33.025-.5V.539a.538.538,0,0,0-1.075,0s0,6.072,0,6.1a2.661,2.661,0,0,0-.464-.041H70.313a2.76,2.76,0,0,0-1.4.39.544.544,0,0,0-.055.023L63.62,9.56a2.809,2.809,0,0,0-1.307,1.375l-.008.02-2.166,5.5a.538.538,0,1,0,1,.394L63.3,11.36a1.728,1.728,0,0,1,.8-.836l2.769-1.348L64.1,12.523a2.859,2.859,0,0,0-.632,1.848V32.934a3.843,3.843,0,0,0,.053.634l-5.539-2.454a2.492,2.492,0,0,1-1.264-3.283l.007-.016,3.5-8.707a.538.538,0,1,0-1-.4l-3.5,8.7A3.569,3.569,0,0,0,57.548,32.1l6.5,2.878.024.009A3.674,3.674,0,0,0,67.16,36.7H80.419a3.813,3.813,0,0,0,3.763-3.763V29.78a.538.538,0,0,0-1.075,0v3.154a2.724,2.724,0,0,1-2.688,2.688H67.16a2.656,2.656,0,0,1-2.616-2.688V14.371a1.775,1.775,0,0,1,.387-1.164l3.987-4.83a1.836,1.836,0,0,1,1.4-.707h6.952a1.583,1.583,0,0,1,.3.03,4.049,4.049,0,0,1-2.3,2.585,1.684,1.684,0,1,0,.225,1.068,5.122,5.122,0,0,0,3.03-3.124c.047.047.092.1.135.149l3.987,4.83a1.863,1.863,0,0,1,.458,1.164v12.9a.537.537,0,0,0,.537.537ZM73.825,11.755a.609.609,0,1,1,.609-.609A.61.61,0,0,1,73.825,11.755Z" transform="translate(-55.432 -0.001)" fill="#0b3058"/>
  <path id="Path_82" data-name="Path 82" d="M240.12,266.249a.536.536,0,0,0,.38-.157l9.174-9.174a.538.538,0,1,0-.76-.76l-9.174,9.174A.541.541,0,0,0,240.12,266.249Z" transform="translate(-226.385 -237.652)" fill="#0b3058"/>
  <path id="Path_83" data-name="Path 83" d="M231.969,259.659a2.329,2.329,0,1,0,0-4.659H231.9a2.329,2.329,0,1,0,0,4.659Zm-1.326-2.329a1.256,1.256,0,0,1,1.254-1.254h.072a1.254,1.254,0,1,1,0,2.508H231.9A1.256,1.256,0,0,1,230.643,257.329Z" transform="translate(-217.087 -236.724)" fill="#0b3058"/>
  <path id="Path_84" data-name="Path 84" d="M329.9,338.659h.072a2.329,2.329,0,1,0,0-4.659H329.9a2.329,2.329,0,1,0,0,4.659Zm0-3.584h.072a1.254,1.254,0,1,1,0,2.509H329.9a1.254,1.254,0,0,1,0-2.509Z" transform="translate(-308.063 -310.062)" fill="#0b3058"/>
</svg>
