<svg xmlns="http://www.w3.org/2000/svg" width="34.111" height="34" viewBox="0 0 34.111 34">
  <g id="rocking-chair" transform="translate(0 0)">
    <path id="Path_85" data-name="Path 85" d="M.312,26.576a2.647,2.647,0,0,1,3.443-.351,23.612,23.612,0,0,0,2.75,1.73.5.5,0,1,1-.473.88,24.623,24.623,0,0,1-2.867-1.8,1.634,1.634,0,0,0-2.124.229.15.15,0,0,0,.011.217A28.034,28.034,0,0,0,15.507,33.49a38.076,38.076,0,0,0,8.737.168,37.756,37.756,0,0,0,8.768-1.889.145.145,0,0,0,.085-.076.15.15,0,0,0,.005-.117,1.58,1.58,0,0,0-1.927-.965A37.646,37.646,0,0,1,18.931,32.2,30.331,30.331,0,0,1,7.9,29.744a.5.5,0,0,1,.4-.915q1.025.45,2.1.815L11.722,24.7h-.13a1,1,0,0,1-1-1V22.03a1,1,0,0,1,1-1h.282L6.861,2.324A1.15,1.15,0,0,1,7.674.916a2.449,2.449,0,0,1,2.977,1.654,1.833,1.833,0,0,1,3,.886l.622,2.32a.5.5,0,1,1-.965.259l-.622-2.32a.833.833,0,1,0-1.609.431h0l2.4,8.956H15.2L13.812,7.923a.5.5,0,0,1,.965-.259L16.234,13.1h4.738a.5.5,0,0,1,0,1H11.051l.429,1.6H28.117a.151.151,0,0,0,.15-.15A1.452,1.452,0,0,0,26.817,14.1H22.97a.5.5,0,1,1,0-1h3.847a2.453,2.453,0,0,1,2.45,2.45,1.151,1.151,0,0,1-1.15,1.15H26.759v1.666h1.865a1.831,1.831,0,0,1,.96,3.39,1,1,0,0,1,.039.274V23.7a1,1,0,0,1-1,1h-.176l1.407,5.25q.518-.139,1.035-.292a2.581,2.581,0,0,1,3.149,1.577,1.149,1.149,0,0,1-.7,1.484,38.753,38.753,0,0,1-9,1.939q-1.881.178-3.757.178a38.506,38.506,0,0,1-5.21-.351,33.429,33.429,0,0,1-8.219-2.172A24.616,24.616,0,0,1,.4,28.232a1.15,1.15,0,0,1-.086-1.656Zm11.036,3.375q.457.138.922.261l1.478-5.517h-.991ZM12.441,13.1,9.709,2.907A1.451,1.451,0,0,0,7.932,1.881a.15.15,0,0,0-.106.184L10.783,13.1h1.658Zm.467,7.93h1.658l-1.16-4.33H11.747ZM14.44,16.7l.446,1.666H16.61L16.164,16.7Zm3.205,1.666H23.8V16.7H17.2Zm6.158,1H15.154l.446,1.666h8.2Zm1-2.665v4.33h.958V16.7Zm3.822,2.665H26.759v1.666h1.865a.833.833,0,0,0,0-1.666Zm0,2.665H11.592V23.7h4.6a.5.5,0,1,1,0,1h-1.41L13.24,30.452a31.336,31.336,0,0,0,5.731.751,35.62,35.62,0,0,0,8-.6L25.388,24.7h-7.2a.5.5,0,0,1,0-1H28.625Zm-1.211,2.665h-.991l1.53,5.71q.467-.1.934-.213Z" transform="translate(-0.001 -0.832)" fill="#0b3058"/>
  </g>
</svg>
