<svg xmlns="http://www.w3.org/2000/svg" width="24.989" height="24.988" viewBox="0 0 24.989 24.988">
  <g id="round-table" transform="translate(0 0)">
    <path id="Path_110" data-name="Path 110" d="M26.1,236.646a3.674,3.674,0,0,0-.4-4.716L24.061,230.3a10.117,10.117,0,0,0,.293-3.79.366.366,0,0,0-.728.081,9.388,9.388,0,0,1-.17,3.1l-.524-.524a1.423,1.423,0,1,0-2.013,2.013l1.375,1.375a9.426,9.426,0,0,1-10.077,4.261l.525-.525a1.423,1.423,0,0,0-2.013-2.012l-1.377,1.377a9.482,9.482,0,0,1-3.166-3.2c0-.008-.007-.016-.011-.023-.155-.263-.3-.531-.421-.8a9.3,9.3,0,0,1-.463-1.194.373.373,0,0,0-.021-.052,9.4,9.4,0,0,1-.372-3.606.366.366,0,1,0-.729-.066,10.122,10.122,0,0,0,.355,3.732l-1.576,1.576a3.672,3.672,0,0,0-.419,4.693l-.037.037a1.457,1.457,0,0,0,0,2.061l.679.679a1.458,1.458,0,0,0,2.06,0l.033-.033a3.649,3.649,0,0,0,2.113.673,3.725,3.725,0,0,0,.677-.062.366.366,0,0,0-.133-.72,2.93,2.93,0,0,1-2.129-.418l.771-.771a1.447,1.447,0,0,0,.383-.674,1.39,1.39,0,0,0,1.772-.159l.948-.948,0,0,1.579-1.579a.693.693,0,0,1,.978,0,.691.691,0,0,1,0,.977l-.976.976,0,0-1.781,1.781a2.994,2.994,0,0,1-.309.269.366.366,0,1,0,.442.584,3.69,3.69,0,0,0,.385-.336l1.633-1.632a10.138,10.138,0,0,0,5.464-.042l1.583,1.584a3.663,3.663,0,0,0,2.45,1.073q.075,0,.149,0a3.659,3.659,0,0,0,2.1-.657l.037.037a1.459,1.459,0,0,0,2.06,0l.679-.679a1.457,1.457,0,0,0,0-2.06ZM2.606,234.5a2.933,2.933,0,0,1,.859-1.961l1.317-1.317a10.08,10.08,0,0,0,.619,1.335l-.727.727a1.389,1.389,0,0,0-.173,1.753,1.449,1.449,0,0,0-.679.383l-.767.767A2.93,2.93,0,0,1,2.606,234.5Zm3.439,3.141L4.981,238.7h0l-.267.267a.726.726,0,0,1-1.025,0l-.679-.679a.725.725,0,0,1,0-1.025l.262-.262,0,0,1.067-1.067a.725.725,0,0,1,1.023,0l.648.648.033.033a.725.725,0,0,1,0,1.025Zm2.155-.833a.655.655,0,0,1-.927,0l-.707-.707,0,0-.316-.316-.363-.362,0,0-.689-.689a.655.655,0,0,1,0-.927l.6-.6a10.2,10.2,0,0,0,1.133,1.424l-.188.188a.366.366,0,0,0,.518.518l.194-.194a10.163,10.163,0,0,0,1.372,1.05Zm13.237-7.123a.692.692,0,0,1,.977,0l2.761,2.762a2.957,2.957,0,0,1,.394,3.671l-.771-.771a1.45,1.45,0,0,0-.674-.382,1.387,1.387,0,0,0-.158-1.773l-2.53-2.529A.692.692,0,0,1,21.438,229.686Zm-.175,5.3.191.191a.366.366,0,0,0,.518-.518l-.2-.2a10.189,10.189,0,0,0,1.051-1.371l.624.624a.655.655,0,0,1,0,.927l-.709.709,0,0-.679.679,0,0-.689.69a.657.657,0,0,1-.927,0l-.6-.605A10.142,10.142,0,0,0,21.263,234.981ZM21.14,239.3a2.934,2.934,0,0,1-1.961-.859l-1.321-1.321c.245-.092.487-.194.724-.3.206-.1.411-.2.613-.313l.729.729a1.39,1.39,0,0,0,1.752.173,1.449,1.449,0,0,0,.384.679l.767.767A2.935,2.935,0,0,1,21.14,239.3Zm4.473-1.082-.679.679a.725.725,0,0,1-1.025,0l-1.332-1.332a.724.724,0,0,1,0-1.024l.681-.681a.726.726,0,0,1,1.024,0l1.07,1.07h0l.261.261a.725.725,0,0,1,0,1.025Zm0,0" transform="translate(-1.781 -215.142)" fill="#0b3058"/>
    <path id="Path_111" data-name="Path 111" d="M3.839,10.958A1.423,1.423,0,0,0,5.851,8.945L4.469,7.564A9.437,9.437,0,0,1,5.731,5.943a.4.4,0,0,0,.03-.027.367.367,0,0,0,.033-.038l.043-.044a9.448,9.448,0,0,1,1.81-1.415A.37.37,0,0,0,7.7,4.392c.26-.154.529-.3.8-.421a9.367,9.367,0,0,1,1.195-.463.36.36,0,0,0,.061-.026,9.4,9.4,0,0,1,4.805-.176l-.531.531a1.423,1.423,0,0,0,2.012,2.012l1.38-1.38A9.486,9.486,0,0,1,20.654,7.8a13.73,13.73,0,0,1,.817,1.856.36.36,0,0,0,.025.079h0c.074.243.219.217.334.217h0a.366.366,0,0,0,.259-.107l1.736-1.735a3.673,3.673,0,0,0,.419-4.694l.037-.037a1.457,1.457,0,0,0,0-2.06L23.6.638a1.459,1.459,0,0,0-2.06,0l-.033.033a3.675,3.675,0,0,0-4.717.4L15.165,2.7a10.135,10.135,0,0,0-5.48.038L8.11,1.164A3.674,3.674,0,0,0,3.416.745L3.379.708a1.459,1.459,0,0,0-2.06,0L.64,1.387a1.457,1.457,0,0,0,0,2.06l.033.033a3.674,3.674,0,0,0,.4,4.716ZM20.195,4.015l.015.015L21.58,5.4a.655.655,0,0,1,0,.927l-.6.6A10.206,10.206,0,0,0,19.846,5.5l.188-.188a.366.366,0,0,0-.518-.518l-.194.194a10.154,10.154,0,0,0-1.37-1.052l.619-.619a.657.657,0,0,1,.928,0Zm3.972,1.614a2.931,2.931,0,0,1-.859,1.961L21.981,8.916a13.117,13.117,0,0,0-.614-1.341l.73-.73a1.388,1.388,0,0,0,.173-1.753,1.448,1.448,0,0,0,.679-.383l.767-.767A2.929,2.929,0,0,1,24.166,5.629ZM22.572.944a.722.722,0,0,1,.512.212l.679.679a.725.725,0,0,1,0,1.025l-.266.266,0,0L22.431,4.191a.726.726,0,0,1-1.025,0l-.679-.679a.726.726,0,0,1,0-1.025l1.332-1.332A.722.722,0,0,1,22.572.944Zm-5.262.649A2.958,2.958,0,0,1,20.981,1.2l-.771.771a1.447,1.447,0,0,0-.382.674,1.39,1.39,0,0,0-1.773.158L15.525,5.331a.692.692,0,0,1-.977,0,.69.69,0,0,1,0-.977ZM3.322,6.416a.655.655,0,0,1,0-.927L5.4,3.409a.656.656,0,0,1,.927,0l.6.6A10.209,10.209,0,0,0,5.5,5.139l-.185-.185a.366.366,0,0,0-.518.518l.19.19A10.146,10.146,0,0,0,3.939,7.034ZM5.631.823a2.932,2.932,0,0,1,1.961.859L8.907,3a10.121,10.121,0,0,0-1.336.618l-.724-.724A1.39,1.39,0,0,0,5.1,2.719a1.447,1.447,0,0,0-.384-.679l-.767-.767A2.931,2.931,0,0,1,5.631.823ZM1.158,1.9l.679-.679a.726.726,0,0,1,1.025,0l.265.265,0,0L4.193,2.558a.725.725,0,0,1,0,1.025l-.679.679a.726.726,0,0,1-1.025,0L1.158,2.93a.725.725,0,0,1,0-1.025Zm.043,2.1.771.771a1.449,1.449,0,0,0,.674.382A1.387,1.387,0,0,0,2.8,6.934L5.333,9.463a.691.691,0,0,1-.977.977L1.594,7.679A2.956,2.956,0,0,1,1.2,4.008Zm0,0" transform="translate(-0.001 0.001)" fill="#0b3058"/>
    <path id="Path_112" data-name="Path 112" d="M115.442,279.038l-1.8,1.592a.688.688,0,0,0-.059.97l.99,1.117,0,0,0,0,.949,1.071a.688.688,0,0,0,.97.058l1.8-1.593a.688.688,0,0,0,.059-.97l-1.945-2.194A.688.688,0,0,0,115.442,279.038Zm.452.578.706.8-1.718,1.545-.717-.809Zm.156,3.659-.683-.77,1.718-1.545.694.782Zm0,0" transform="translate(-107.879 -265.255)" fill="#0b3058"/>
    <path id="Path_113" data-name="Path 113" d="M283.089,129.894l-2.577,2.284a.743.743,0,0,0-.063,1.049l1.871,2.11a.738.738,0,0,0,.511.249h.046a.737.737,0,0,0,.492-.187l2.577-2.284a.743.743,0,0,0,.063-1.049l-1.871-2.11A.744.744,0,0,0,283.089,129.894Zm2.374,2.667a.009.009,0,0,1,0,.007h0l-2.577,2.284a.008.008,0,0,1-.008,0,.01.01,0,0,1-.008,0L281,132.741a.01.01,0,0,1,0-.008.011.011,0,0,1,0-.008l2.577-2.284a.011.011,0,0,1,.007,0,.01.01,0,0,1,.008,0l1.871,2.11A.009.009,0,0,1,285.463,132.56Zm0,0" transform="translate(-266.583 -123.376)" fill="#0b3058"/>
  </g>
</svg>
