<svg id="settings" xmlns="http://www.w3.org/2000/svg" width="26.025" height="26.025" viewBox="0 0 26.025 26.025">
  <g id="Group_122" data-name="Group 122" transform="translate(0 8.675)">
    <g id="Group_121" data-name="Group 121">
      <path id="Path_46" data-name="Path 46" d="M16.049,166.506h-.477a.427.427,0,0,1-.4-.28c-.053-.139-.11-.275-.171-.409a.428.428,0,0,1,.087-.484l.34-.34a1.3,1.3,0,0,0,0-1.839L14.2,161.928a1.3,1.3,0,0,0-1.839,0l-.34.34a.429.429,0,0,1-.484.087c-.134-.061-.27-.118-.409-.174a.426.426,0,0,1-.282-.4V161.3a1.3,1.3,0,0,0-1.3-1.3H7.807a1.3,1.3,0,0,0-1.3,1.3v.477a.427.427,0,0,1-.28.4c-.139.053-.275.11-.409.171a.429.429,0,0,1-.484-.087l-.34-.34a1.3,1.3,0,0,0-1.839,0l-1.226,1.23a1.3,1.3,0,0,0,0,1.839l.34.34a.428.428,0,0,1,.087.484c-.061.134-.118.27-.171.409a.426.426,0,0,1-.4.28H1.3a1.3,1.3,0,0,0-1.3,1.3v1.735a1.3,1.3,0,0,0,1.3,1.3h.477a.427.427,0,0,1,.4.28c.053.139.11.275.171.409a.428.428,0,0,1-.087.484l-.34.34a1.3,1.3,0,0,0,0,1.839l1.226,1.226a1.3,1.3,0,0,0,1.839,0l.34-.34A.43.43,0,0,1,5.813,175c.134.061.27.118.409.173a.426.426,0,0,1,.284.4v.477a1.3,1.3,0,0,0,1.3,1.3H9.542a1.3,1.3,0,0,0,1.3-1.3v-.477a.427.427,0,0,1,.28-.4c.139-.053.275-.11.409-.171a.429.429,0,0,1,.484.087l.34.34a1.3,1.3,0,0,0,1.839,0l1.226-1.226a1.3,1.3,0,0,0,0-1.839l-.34-.34a.428.428,0,0,1-.087-.484c.061-.134.118-.27.174-.409a.426.426,0,0,1,.4-.281h.477a1.3,1.3,0,0,0,1.3-1.3v-1.735A1.3,1.3,0,0,0,16.049,166.506Zm.434,3.036a.434.434,0,0,1-.434.434h-.477a1.306,1.306,0,0,0-1.214.839q-.069.182-.149.359a1.305,1.305,0,0,0,.26,1.456l.339.34a.434.434,0,0,1,0,.613h0l-1.226,1.226a.434.434,0,0,1-.613,0l-.34-.34a1.3,1.3,0,0,0-1.456-.26c-.118.053-.237.1-.358.149a1.305,1.305,0,0,0-.838,1.214v.477a.434.434,0,0,1-.434.434H7.807a.434.434,0,0,1-.434-.434v-.477a1.306,1.306,0,0,0-.839-1.215q-.182-.069-.359-.149a1.306,1.306,0,0,0-1.456.26l-.34.339a.434.434,0,0,1-.613,0h0l-1.226-1.224a.434.434,0,0,1,0-.613l.34-.34a1.305,1.305,0,0,0,.26-1.456c-.053-.118-.1-.237-.149-.358a1.305,1.305,0,0,0-1.214-.84H1.3a.434.434,0,0,1-.434-.434v-1.735a.434.434,0,0,1,.434-.434h.477a1.306,1.306,0,0,0,1.214-.839q.069-.182.149-.359a1.305,1.305,0,0,0-.26-1.456l-.341-.34a.434.434,0,0,1,0-.613h0l1.226-1.226a.434.434,0,0,1,.613,0l.34.34a1.3,1.3,0,0,0,1.456.26c.118-.053.237-.1.358-.149a1.305,1.305,0,0,0,.84-1.214V161.3a.434.434,0,0,1,.434-.434H9.542a.434.434,0,0,1,.434.434v.477a1.306,1.306,0,0,0,.839,1.214q.182.069.359.149a1.3,1.3,0,0,0,1.456-.26l.34-.339a.436.436,0,0,1,.614,0l1.226,1.226a.434.434,0,0,1,0,.613l-.34.34a1.305,1.305,0,0,0-.26,1.456c.053.118.1.237.149.358a1.305,1.305,0,0,0,1.214.838h.477a.434.434,0,0,1,.434.434v1.735Z" transform="translate(0 -160)" fill="#0b3058"/>
    </g>
  </g>
  <g id="Group_124" data-name="Group 124" transform="translate(4.769 13.446)">
    <g id="Group_123" data-name="Group 123">
      <path id="Path_47" data-name="Path 47" d="M95.76,251.73c0-.1-.012-.208-.024-.311s-.03-.221-.053-.329c-.015-.071-.035-.141-.054-.211q-.036-.134-.082-.264c-.021-.06-.043-.12-.066-.18a3.87,3.87,0,0,0-.191-.406c-.006-.01-.009-.021-.015-.031a3.848,3.848,0,0,0-.39-.569c-.013-.016-.027-.03-.04-.046-.06-.071-.121-.139-.186-.2-.034-.035-.069-.068-.1-.1s-.087-.08-.13-.118-.106-.09-.161-.133l-.071-.053A3.876,3.876,0,0,0,91.865,248c-.043,0-.087.007-.13.008-.092,0-.185.008-.278.017-.049.005-.1.011-.147.018a3.976,3.976,0,0,0-.42.078,3.906,3.906,0,0,0,0,7.564.1.1,0,0,1,.022,0,4.145,4.145,0,0,0,.455.087c.1.013.2.015.3.02.068,0,.13.013.2.013.124,0,.252-.008.383-.021a.417.417,0,0,0,.043-.006c.105-.012.212-.027.321-.049.043-.008.084-.019.125-.029.076-.018.152-.036.23-.059.061-.018.12-.039.179-.06l.183-.067c.062-.023.113-.05.169-.076.073-.033.145-.066.217-.105h0a5.135,5.135,0,0,0,1.112-.8,1.366,1.366,0,0,0,.232-.285,4.63,4.63,0,0,0,.653-1.783c.012-.084.023-.167.03-.253s.01-.157.012-.235c0-.025,0-.048,0-.073C95.768,251.846,95.762,251.789,95.76,251.73Zm-.864.284c0,.036,0,.072-.005.108-.008.1-.021.21-.039.315a3.043,3.043,0,0,1-1.524,2.125c-.054.028-.107.055-.16.079l-.036.017a3.134,3.134,0,0,1-.791.239l-.058.009c-.054.008-.108.014-.16.019-.07.006-.14.01-.212.011h-.091a3.046,3.046,0,0,1-.307-.019l-.052-.006a3.206,3.206,0,0,1-.354-.067,3.036,3.036,0,0,1,0-5.882h0a3.143,3.143,0,0,1,.762-.1,3.008,3.008,0,0,1,.371.025c.033,0,.066.01.1.015.094.015.187.033.278.057l.089.023a3.059,3.059,0,0,1,.661.278l.1.06c.069.043.135.087.2.136.035.026.071.051.1.078a3.132,3.132,0,0,1,.244.217c.031.031.059.065.089.1.05.054.1.11.145.168.032.04.063.082.093.124.043.062.087.127.126.193l.066.108a2.975,2.975,0,0,1,.149.318c.017.043.032.087.048.13.028.08.052.16.074.242.011.043.023.082.032.124a3.054,3.054,0,0,1,.055.355c0,.032,0,.064,0,.1C94.9,251.814,94.9,251.914,94.9,252.014Z" transform="translate(-87.959 -248)" fill="#0b3058"/>
    </g>
  </g>
  <g id="Group_126" data-name="Group 126" transform="translate(4.731)">
    <g id="Group_125" data-name="Group 125">
      <path id="Path_48" data-name="Path 48" d="M107.254,9.109H105.89a.423.423,0,0,1-.4-.285A9.035,9.035,0,0,0,105,7.648a.425.425,0,0,1,.083-.49l.967-.969a1.3,1.3,0,0,0,0-1.84L104.2,2.509a1.3,1.3,0,0,0-1.84,0l-.967.966a.425.425,0,0,1-.489.084,9.01,9.01,0,0,0-1.176-.49.423.423,0,0,1-.286-.4V1.3a1.3,1.3,0,0,0-1.3-1.3h-2.6a1.3,1.3,0,0,0-1.3,1.3V2.665a.423.423,0,0,1-.285.4,9.04,9.04,0,0,0-1.176.489.424.424,0,0,1-.49-.083l-.969-.967a1.3,1.3,0,0,0-1.84,0L87.642,4.349a1.3,1.3,0,0,0,0,1.84l1.422,1.425A.434.434,0,0,0,89.679,7L88.256,5.577a.434.434,0,0,1,0-.613L90.1,3.123a.434.434,0,0,1,.613,0l.969.967a1.29,1.29,0,0,0,1.49.245,8.205,8.205,0,0,1,1.063-.442,1.29,1.29,0,0,0,.877-1.228V1.3a.434.434,0,0,1,.434-.434h2.6a.434.434,0,0,1,.434.434V2.665a1.29,1.29,0,0,0,.877,1.227,8.181,8.181,0,0,1,1.064.442,1.293,1.293,0,0,0,1.49-.245l.969-.967a.434.434,0,0,1,.613,0l1.841,1.841a.434.434,0,0,1,0,.613l-.967.969a1.291,1.291,0,0,0-.245,1.49,8.2,8.2,0,0,1,.442,1.063,1.29,1.29,0,0,0,1.228.877h1.364a.434.434,0,0,1,.434.434v2.6a.434.434,0,0,1-.434.434H105.89a1.29,1.29,0,0,0-1.227.877,8.176,8.176,0,0,1-.442,1.064,1.291,1.291,0,0,0,.245,1.49l.967.969a.434.434,0,0,1,0,.613L103.591,20.3a.434.434,0,0,1-.613,0l-1.425-1.422a.434.434,0,0,0-.623.6l.011.011,1.425,1.422a1.3,1.3,0,0,0,1.84,0l1.841-1.84a1.3,1.3,0,0,0,0-1.84l-.966-.968a.425.425,0,0,1-.084-.489,9.012,9.012,0,0,0,.49-1.176.423.423,0,0,1,.4-.286h1.364a1.3,1.3,0,0,0,1.3-1.3v-2.6A1.3,1.3,0,0,0,107.254,9.109Z" transform="translate(-87.261)" fill="#0b3058"/>
    </g>
  </g>
  <g id="Group_128" data-name="Group 128" transform="translate(10.205 6.075)">
    <g id="Group_127" data-name="Group 127">
      <path id="Path_49" data-name="Path 49" d="M196.314,113.7a5.644,5.644,0,0,0-7.974,0,.434.434,0,0,0,.613.613,4.771,4.771,0,1,1,6.793,6.7l-.045.045a.434.434,0,0,0,.6.624l.011-.011A5.644,5.644,0,0,0,196.314,113.7Z" transform="translate(-188.219 -112.049)" fill="#0b3058"/>
    </g>
  </g>
</svg>
