<svg id="stamp" xmlns="http://www.w3.org/2000/svg" xmlns:xlink="http://www.w3.org/1999/xlink" width="46.459" height="46.459" viewBox="0 0 46.459 46.459">
  <defs>
    <clipPath id="clip-path">
      <path id="path3582" d="M0-682.665H46.459v46.459H0Z" transform="translate(0 682.665)" fill="#fff" stroke="#fff" stroke-width="2"/>
    </clipPath>
  </defs>
  <g id="g3578">
    <g id="g3580" clip-path="url(#clip-path)">
      <path id="path3586" d="M134-94.555H101.333V-100H134Z" transform="translate(-94.437 139.653)" fill="none" stroke="#fff" stroke-linecap="round" stroke-linejoin="round" stroke-width="2"/>
      <g id="g3588" transform="translate(4.174 1.361)">
        <path id="path3590" d="M0-524.373V-527.1a5.444,5.444,0,0,1,5.444-5.444h5.444c.615-.876,5.633-4.291,4.71-10.839A10.03,10.03,0,0,0,13.11-548.9a8.173,8.173,0,0,1-2.085-7.111,8.174,8.174,0,0,1,8.031-6.655,8.175,8.175,0,0,1,8.031,6.655A8.173,8.173,0,0,1,25-548.9a10.03,10.03,0,0,0-2.488,5.521c-.923,6.548,4.095,9.963,4.71,10.839h5.444a5.444,5.444,0,0,1,5.444,5.444v2.722Z" transform="translate(0 562.665)" fill="none" stroke="#fff" stroke-linecap="round" stroke-linejoin="round" stroke-width="2"/>
      </g>
      <g id="g3592" transform="translate(15.063 31.487)">
        <path id="path3594" d="M0,0H16.333" transform="translate(0 0)" fill="none" stroke="#fff" stroke-linecap="round" stroke-linejoin="round" stroke-width="2"/>
      </g>
    </g>
  </g>
</svg>
