<svg id="layer1" xmlns="http://www.w3.org/2000/svg" width="35.47" height="35.732" viewBox="0 0 35.47 35.732">
  <path id="path8136" d="M32.681,280.286a.564.564,0,0,0-.163.029l-3.4,1.1a.6.6,0,0,0-.38.751l.182.566L9.1,289.136a.6.6,0,0,0-.382.751l.182.565-4.531,1.465-.182-.565a.529.529,0,0,0-.019-.058.6.6,0,0,0-.729-.328l-2.267.732a.6.6,0,0,0-.385.753l2.2,6.793a.6.6,0,0,0,.753.385L6,298.9a.6.6,0,0,0,.38-.751l-.182-.564,4.531-1.465.184.567a.6.6,0,0,0,.751.382l5.419-1.753a3.907,3.907,0,0,0,2.637,2.085l-6.843,17.79a.6.6,0,1,0,1.111.425l3.287-8.544h2.7V315.4a.6.6,0,1,0,1.19,0v-8.329c.888,0,1.793,0,2.675-.007l3.314,8.55a.6.6,0,1,0,1.111-.43l-6.888-17.774a3.857,3.857,0,0,0,3.027-4.467l7.074-2.284.182.564a.6.6,0,0,0,.749.387l3.4-1.1a.6.6,0,0,0,.385-.752L33.27,280.7a.6.6,0,0,0-.589-.414Zm-.36,1.345,2.563,7.93-2.265.732-2.564-7.93Zm-3.034,2.233,1.832,5.663-7.087,2.29a3.89,3.89,0,0,0-7.348,1.788,3.866,3.866,0,0,0,.046.57l-4.867,1.574q-.913-2.832-1.827-5.663ZM20.575,290.9a2.7,2.7,0,1,1-2.7,2.706A2.7,2.7,0,0,1,20.575,290.9Zm-11.308.686,1.1,3.4-4.531,1.465-1.1-3.4Zm11.308.206a1.812,1.812,0,1,0,1.81,1.814A1.822,1.822,0,0,0,20.575,291.79Zm-17.338.493,1.831,5.664-1.133.366L2.1,292.649Zm17.338.7a.622.622,0,1,1-.62.624A.613.613,0,0,1,20.575,292.981Zm-.593,7.057v5.842H17.735Zm1.19.125,2.215,5.716H21.172Z" transform="translate(-0.758 -280.285)" fill="#0b3058"/>
</svg>
