<svg id="voucher" xmlns="http://www.w3.org/2000/svg" width="23.68" height="23.676" viewBox="0 0 23.68 23.676">
  <path id="Path_3810" data-name="Path 3810" d="M206.239,96.9a1.184,1.184,0,0,0-2.17-.284l-.2.343a.4.4,0,0,0-.537.142l-1,1.708-.343-.2a.394.394,0,1,0-.395.683l.343.2-3.354,5.812-.829,2.214-.395.738a1.184,1.184,0,0,0,.063,1.279l-.888,1.089-.249-.623a.789.789,0,0,0-1.409-.111l-.142.241-.134-1.578a.789.789,0,0,0-1.535-.185l-.971,2.912a.4.4,0,0,0,.249.5.342.342,0,0,0,.122.031.4.4,0,0,0,.375-.268l.967-2.912.138,1.6a.789.789,0,0,0,1.464.34l.146-.241.245.62a.789.789,0,0,0,1.35.2l.919-1.164a1.216,1.216,0,0,0,.312.039,1.184,1.184,0,0,0,1.03-.584l.395-.659,1.5-1.827,3.39-5.884.343.2a.4.4,0,0,1,.146.541l-1.578,2.735a.392.392,0,1,0,.667.41l1.578-2.735a1.183,1.183,0,0,0-.434-1.618l-.343-.2.987-1.709a.4.4,0,0,0-.142-.537l.2-.343A1.183,1.183,0,0,0,206.239,96.9Zm-1.488.11a.4.4,0,0,1,.241-.185.414.414,0,0,1,.3.04.4.4,0,0,1,.186.241.414.414,0,0,1-.039.3l-.2.343-.687-.395Zm-5.378,11.017-.2-.114-.584-.339.56-1.5,1.243.718Zm-1.184,1.14a.394.394,0,0,1-.118-.517l.2-.343.687.395-.2.339a.394.394,0,0,1-.568.126Zm2.656-3.023-1.365-.789,3.157-5.469,1.365.789ZM204.4,99.99l-1.365-.789.789-1.365,1.365.789Zm0,0" transform="translate(-182.603 -91.285)"/>
  <path id="Path_3811" data-name="Path 3811" d="M70.219,356.691l-1.4,1.393-.837-.837a.395.395,0,1,0-.556.56l.837.837a.8.8,0,0,0,1.117,0l1.393-1.4a.395.395,0,0,0-.556-.556Zm0,0" transform="translate(-63.992 -339.009)"/>
  <path id="Path_3812" data-name="Path 3812" d="M32,315.4a3.354,3.354,0,1,0,6.708,0,.395.395,0,0,0-.789,0,2.565,2.565,0,1,1-1.026-2.052.395.395,0,0,0,.474-.631A3.354,3.354,0,0,0,32,315.4Zm0,0" transform="translate(-30.422 -296.652)"/>
  <path id="Path_3813" data-name="Path 3813" d="M82.654,48.828a.395.395,0,0,0,0-.789H72.395a.4.4,0,0,0-.395.395v1.578a.394.394,0,0,0,.395.395h10.26a.395.395,0,0,0,0-.789H72.789v-.789Zm0,0" transform="translate(-68.449 -45.671)"/>
  <path id="Path_3814" data-name="Path 3814" d="M96.395,112.039a.395.395,0,0,0,0,.789h7.892a.395.395,0,1,0,0-.789Zm0,0" transform="translate(-91.265 -106.515)"/>
  <path id="Path_3815" data-name="Path 3815" d="M137.076,168.039h-8.681a.395.395,0,1,0,0,.789h8.681a.395.395,0,1,0,0-.789Zm0,0" transform="translate(-121.686 -159.752)"/>
  <path id="Path_3816" data-name="Path 3816" d="M64.681,216.434a.4.4,0,0,0-.395-.395H56.395a.395.395,0,0,0,0,.789h7.892A.394.394,0,0,0,64.681,216.434Zm0,0" transform="translate(-53.238 -205.385)"/>
  <path id="Path_3817" data-name="Path 3817" d="M251.157,216.039h-2.762a.395.395,0,1,0,0,.789h2.762a.395.395,0,1,0,0-.789Zm0,0" transform="translate(-235.767 -205.385)"/>
  <path id="Path_3818" data-name="Path 3818" d="M60.341,256.828a.395.395,0,1,0,0-.789H56.395a.395.395,0,1,0,0,.789Zm0,0" transform="translate(-53.238 -243.412)"/>
  <path id="Path_3819" data-name="Path 3819" d="M168.395,256.828h2.762a.395.395,0,1,0,0-.789h-2.762a.395.395,0,1,0,0,.789Zm0,0" transform="translate(-159.713 -243.412)"/>
  <path id="Path_3820" data-name="Path 3820" d="M17.757,18.191a.4.4,0,0,0-.395.395v3.946a.394.394,0,0,1-.395.395H1.184a.394.394,0,0,1-.395-.395V1.223A.4.4,0,0,1,1.184.828H16.968a.4.4,0,0,1,.395.395V8.634a.395.395,0,1,0,.789,0V1.223A1.184,1.184,0,0,0,16.968.039H1.184A1.184,1.184,0,0,0,0,1.223V22.531a1.184,1.184,0,0,0,1.184,1.184H16.968a1.184,1.184,0,0,0,1.184-1.184V18.585A.4.4,0,0,0,17.757,18.191Zm0,0" transform="translate(0 -0.039)"/>
</svg>
